<svg width="27" height="31" viewBox="0 0 27 31" fill="none" xmlns="http://www.w3.org/2000/svg">
<path d="M25.7374 0.0465433L24.5526 0.0458389L24.5523 0.507839C22.9027 0.958546 22.6645 2.8327 22.571 3.54885C22.5266 3.88759 22.4364 4.55011 22.3248 5.36164L1.69532 5.34938C0.879067 5.34889 0.787116 6.28263 0.893368 6.79935L3.3057 19.8806C3.41153 20.3974 3.85815 20.8194 4.29618 20.8197L22.3834 20.8304C22.8189 20.8307 23.1737 21.2645 23.1734 21.7977C23.1731 22.3309 22.8177 22.7643 22.3822 22.764L2.63979 22.7523C2.43034 22.7522 2.22942 22.8539 2.08121 23.0351C1.933 23.2163 1.84965 23.4622 1.8495 23.7186C1.84935 23.975 1.9324 24.221 2.08039 24.4024C2.22839 24.5838 2.42919 24.6858 2.63864 24.6859L3.66211 24.6865C3.16774 25.0202 2.75549 25.5101 2.4683 26.1051C2.18112 26.7001 2.02951 27.3785 2.02928 28.0696L2.819 28.07C2.81805 29.671 3.87865 30.9711 5.18642 30.9718C6.49419 30.9726 7.55633 29.6739 7.55729 28.0728L8.347 28.0733C8.34751 27.3822 8.19663 26.7036 7.91008 26.1083C7.62353 25.5129 7.2118 25.0226 6.71778 24.6883L17.8766 24.6949C17.3821 25.0286 16.9698 25.5185 16.6826 26.1135C16.3953 26.7085 16.2436 27.3869 16.2433 28.078L17.033 28.0785C17.0443 28.8384 17.2986 29.5625 17.7414 30.0951C18.1842 30.6277 18.7801 30.9262 19.4009 30.9266C20.0217 30.927 20.6179 30.6291 21.0614 30.097C21.5048 29.565 21.76 28.8412 21.7722 28.0813L22.5619 28.0818C22.5623 27.3907 22.4115 26.7122 22.125 26.1169C21.8385 25.5216 21.4269 25.0312 20.9331 24.6968L22.3819 24.6976C23.0102 24.6976 23.6128 24.3922 24.0573 23.8487C24.5019 23.3051 24.752 22.5677 24.7528 21.7986C24.753 21.4177 24.6918 21.0404 24.5729 20.6884C24.454 20.3364 24.2796 20.0166 24.0597 19.7471C23.8398 19.4777 23.5787 19.2639 23.2912 19.118C23.0038 18.9721 22.6957 18.897 22.3845 18.8968L22.091 18.8967L23.1055 11.2093C23.3881 9.17893 23.9972 4.79287 24.1402 3.70189C24.2121 3.15073 24.2819 2.76354 24.5511 2.54662L24.5509 2.94571L25.7357 2.94642C25.8402 2.94607 25.9403 2.89517 26.0143 2.80481C26.0883 2.71444 26.1301 2.59195 26.1306 2.46403L26.1318 0.530434C26.1316 0.402333 26.09 0.279524 26.0161 0.188851C25.9423 0.0981777 25.842 0.0470141 25.7374 0.0465433V0.0465433ZM5.18728 29.5219C4.87316 29.5213 4.57209 29.3682 4.35013 29.0961C4.12818 28.8241 4.00347 28.4553 4.00336 28.0707L6.3725 28.0721C6.37194 28.4566 6.24685 28.8252 6.02466 29.0969C5.80247 29.3687 5.50133 29.5215 5.18728 29.5219V29.5219ZM19.4021 29.5303C19.088 29.5299 18.7868 29.3768 18.5647 29.1047C18.3427 28.8327 18.2179 28.4638 18.2178 28.0792L20.5878 28.0806C20.587 28.4651 20.4618 28.8335 20.2396 29.1053C20.0173 29.377 19.7162 29.5298 19.4021 29.5303V29.5303ZM18.4434 7.77349C18.4574 7.64245 18.5093 7.5219 18.5898 7.43375C18.6702 7.34561 18.7738 7.29573 18.8817 7.29319L21.3823 7.29467C21.5996 7.2948 21.7507 7.50939 21.7164 7.77286L21.4676 9.71713C21.4346 9.98008 21.2285 10.195 21.0108 10.1948L18.6256 10.1934C18.5754 10.195 18.5255 10.1833 18.4793 10.159C18.4332 10.1347 18.3918 10.0985 18.3582 10.0528C18.3246 10.0072 18.2994 9.95309 18.2845 9.89436C18.2695 9.83564 18.2652 9.77365 18.2717 9.71265L18.4434 7.77349V7.77349ZM18.0156 12.6072C18.0298 12.4763 18.0818 12.3559 18.1622 12.2678C18.2426 12.1798 18.346 12.1298 18.4539 12.1269L20.7632 12.1283C20.981 12.1284 21.1316 12.343 21.0986 12.6065L20.9112 14.0676C20.8777 14.3306 20.6721 14.5455 20.4543 14.5454L18.2402 14.544C18.19 14.5455 18.1401 14.5336 18.094 14.5093C18.048 14.485 18.0067 14.4487 17.9731 14.4031C17.9395 14.3574 17.9143 14.3034 17.8993 14.2448C17.8844 14.1862 17.8799 14.1242 17.8862 14.0633L18.0156 12.6072V12.6072ZM2.90488 9.71486L2.50593 7.75267C2.45385 7.4938 2.5896 7.2835 2.80735 7.28363L5.78047 7.2854C5.99864 7.28553 6.1952 7.50169 6.21821 7.76622L6.38721 9.7061C6.39349 9.76703 6.38896 9.8289 6.37392 9.88749C6.35889 9.94608 6.33371 10 6.3001 10.0456C6.26649 10.0912 6.22524 10.1274 6.17917 10.1517C6.13309 10.176 6.08328 10.1879 6.03314 10.1865L3.39612 10.1849C3.17879 10.1848 2.95738 9.9727 2.90488 9.71486V9.71486ZM4.2797 14.5357C4.06237 14.5356 3.84095 14.3241 3.78888 14.0662L3.48819 12.5878C3.4357 12.3289 3.5706 12.1186 3.78835 12.1187L6.2013 12.1201C6.41905 12.1203 6.61604 12.3364 6.63904 12.601L6.76622 14.0572C6.77257 14.1181 6.76808 14.18 6.75308 14.2387C6.73807 14.2973 6.71289 14.3513 6.67927 14.3969C6.64564 14.4425 6.60436 14.4787 6.55826 14.5029C6.51215 14.5272 6.46231 14.539 6.41214 14.5375L4.2797 14.5363L4.2797 14.5357ZM6.79114 18.8881L5.16328 18.8871C4.94468 18.887 4.72453 18.6754 4.67204 18.4176L4.37135 16.9391C4.31928 16.6802 4.45418 16.47 4.67235 16.4701L6.5803 16.4712C6.79806 16.4713 6.99504 16.6875 7.01889 16.952L7.14522 18.4082C7.15158 18.4692 7.1471 18.531 7.13209 18.5897C7.11708 18.6483 7.09189 18.7022 7.05826 18.7478C7.02463 18.7934 6.98334 18.8295 6.93723 18.8537C6.89113 18.8779 6.84129 18.8897 6.79114 18.8881V18.8881ZM11.6316 18.4073C11.6311 18.5356 11.5892 18.6584 11.5149 18.749C11.4407 18.8396 11.3402 18.8905 11.2354 18.8907L9.17545 18.8895C9.0676 18.8867 8.96416 18.8366 8.88391 18.7484C8.80367 18.6602 8.75194 18.5396 8.73813 18.4087L8.61096 16.9525C8.60447 16.8915 8.60884 16.8296 8.62376 16.7709C8.63869 16.7123 8.66383 16.6583 8.69743 16.6126C8.73104 16.567 8.77233 16.5308 8.81845 16.5065C8.86457 16.4823 8.91444 16.4705 8.96461 16.4721L11.2369 16.4735C11.3417 16.4735 11.4423 16.5245 11.5165 16.6152C11.5906 16.706 11.6324 16.829 11.6325 16.9574L11.6316 18.4073V18.4073ZM11.6342 14.057C11.6337 14.1853 11.5918 14.3081 11.5175 14.3987C11.4433 14.4892 11.3428 14.5402 11.238 14.5404L8.79603 14.5389C8.5787 14.5388 8.38255 14.3226 8.35828 14.0581L8.23195 12.6019C8.22553 12.541 8.22996 12.4791 8.24491 12.4205C8.25987 12.3618 8.285 12.3079 8.3186 12.2622C8.35219 12.2166 8.39345 12.1804 8.43954 12.1561C8.48562 12.1319 8.53545 12.1201 8.58561 12.1216L11.2395 12.1231C11.3443 12.1232 11.4449 12.1742 11.519 12.2649C11.5932 12.3556 11.6349 12.4787 11.6351 12.607L11.6342 14.057V14.057ZM11.6368 9.70613C11.6363 9.83441 11.5943 9.95725 11.5201 10.0478C11.4459 10.1384 11.3454 10.1893 11.2406 10.1896L8.41786 10.1879C8.30994 10.1852 8.2064 10.1352 8.12607 10.047C8.04573 9.95872 7.99394 9.83811 7.98012 9.70705L7.81112 7.76717C7.80477 7.70623 7.80925 7.64432 7.82426 7.58569C7.83927 7.52706 7.86444 7.47309 7.89807 7.42747C7.93169 7.38185 7.97297 7.34567 8.01908 7.32139C8.06518 7.29712 8.11503 7.28532 8.1652 7.28682L11.2428 7.28865C11.3476 7.28871 11.4482 7.33969 11.5223 7.43041C11.5965 7.52113 11.6382 7.64417 11.6384 7.77254L11.6372 9.70613L11.6368 9.70613ZM15.9104 18.4129C15.8964 18.5439 15.8444 18.6644 15.764 18.7526C15.6836 18.8407 15.58 18.8906 15.4721 18.8932L13.6105 18.8921C13.5057 18.8918 13.4054 18.8407 13.3313 18.75C13.2573 18.6594 13.2155 18.5365 13.2153 18.4082L13.2161 16.9578C13.2164 16.8295 13.2583 16.7066 13.3325 16.616C13.4066 16.5254 13.5071 16.4744 13.6119 16.4744L15.6858 16.4756C15.9032 16.4757 16.0631 16.6919 16.0393 16.9564L15.9104 18.4129ZM16.2946 14.0623C16.2805 14.1933 16.2286 14.3138 16.1482 14.4019C16.0677 14.4901 15.9642 14.54 15.8563 14.5426L13.6131 14.5413C13.5083 14.541 13.408 14.4899 13.3339 14.3992C13.2598 14.3085 13.2181 14.1856 13.2179 14.0574L13.2187 12.6069C13.219 12.4787 13.2609 12.3558 13.335 12.2651C13.4092 12.1745 13.5097 12.1236 13.6145 12.1235L16.07 12.125C16.2877 12.1251 16.4472 12.3413 16.4231 12.6058L16.2946 14.0623ZM16.6788 9.71222C16.6647 9.84322 16.6128 9.96371 16.5323 10.0518C16.4519 10.14 16.3484 10.1899 16.2405 10.1925L13.6157 10.191C13.5109 10.1906 13.4105 10.1395 13.3365 10.0489C13.2624 9.9582 13.2207 9.83531 13.2205 9.70707L13.2216 7.77348C13.2219 7.6452 13.2637 7.52229 13.3379 7.43167C13.4121 7.34106 13.5126 7.29013 13.6174 7.29006L16.497 7.29177C16.7148 7.2919 16.8743 7.50804 16.8509 7.77254L16.6788 9.71222V9.71222ZM19.7193 18.8958L19.7193 18.8922L19.7159 18.8958L17.856 18.8947C17.8438 18.8947 17.8333 18.8874 17.821 18.8854C17.8189 18.8678 17.819 18.8503 17.8164 18.8317L17.7979 18.8792C17.803 18.8808 17.8082 18.8822 17.8135 18.8833C17.6193 18.8558 17.4804 18.6593 17.5029 18.4139L17.631 16.9578C17.6452 16.8269 17.6972 16.7066 17.7776 16.6185C17.858 16.5304 17.9614 16.4804 18.0693 16.4775L20.2072 16.4788C20.425 16.4789 20.5748 16.6935 20.5418 16.957L20.3543 18.4182C20.3217 18.6811 20.1161 18.896 19.8983 18.8959L19.7193 18.8958" fill="white"/>
</svg>
