<svg width="995" height="707" viewBox="0 0 995 707" fill="none" xmlns="http://www.w3.org/2000/svg">
<g clip-path="url(#clip0_57_296)">
<rect width="996" height="707" fill="url(#paint0_linear_57_296)"/>
<path d="M644.351 0H996V707H490L644.351 0Z" fill="#9A4692"/>
<rect width="346.704" height="39.5525" transform="matrix(1 0 0.14727 0.989096 48 410)" fill="white"/>
<path d="M344.564 -1H-5V706H498L344.564 -1Z" fill="#9A4692"/>
<g filter="url(#filter0_d_57_296)">
<circle cx="499" cy="325" r="275" fill="#9A4692"/>
<circle cx="499" cy="325" r="272.5" stroke="white" stroke-width="5"/>
</g>
<circle cx="498" cy="319" r="225" fill="white"/>
<circle cx="495" cy="319" r="200" fill="#9A4692"/>
<path d="M380.109 295.312H372.643C372.507 294.347 372.228 293.489 371.808 292.739C371.387 291.977 370.848 291.33 370.189 290.795C369.529 290.261 368.768 289.852 367.904 289.568C367.052 289.284 366.126 289.142 365.126 289.142C363.319 289.142 361.745 289.591 360.404 290.489C359.064 291.375 358.024 292.67 357.285 294.375C356.546 296.068 356.177 298.125 356.177 300.545C356.177 303.034 356.546 305.125 357.285 306.818C358.035 308.511 359.081 309.79 360.421 310.653C361.762 311.517 363.314 311.949 365.075 311.949C366.064 311.949 366.978 311.818 367.819 311.557C368.671 311.295 369.427 310.915 370.086 310.415C370.745 309.903 371.291 309.284 371.723 308.557C372.166 307.83 372.473 307 372.643 306.068L380.109 306.102C379.916 307.705 379.433 309.25 378.66 310.739C377.899 312.216 376.87 313.54 375.575 314.71C374.291 315.869 372.757 316.79 370.973 317.472C369.2 318.142 367.194 318.477 364.956 318.477C361.842 318.477 359.058 317.773 356.603 316.364C354.16 314.955 352.228 312.915 350.808 310.244C349.399 307.574 348.694 304.341 348.694 300.545C348.694 296.739 349.41 293.5 350.842 290.83C352.274 288.159 354.217 286.125 356.671 284.727C359.126 283.318 361.887 282.614 364.956 282.614C366.978 282.614 368.853 282.898 370.581 283.466C372.319 284.034 373.859 284.864 375.2 285.955C376.541 287.034 377.632 288.358 378.473 289.926C379.325 291.494 379.87 293.29 380.109 295.312ZM386.362 318V283.091H393.742V311.915H408.708V318H386.362ZM414.556 318V283.091H438.079V289.176H421.937V297.494H436.868V303.58H421.937V311.915H438.147V318H414.556ZM450.924 318H443.015L455.066 283.091H464.577L476.611 318H468.702L459.958 291.068H459.685L450.924 318ZM450.429 304.278H469.111V310.04H450.429V304.278ZM481.773 318V283.091H495.546C498.182 283.091 500.432 283.562 502.296 284.506C504.171 285.437 505.597 286.761 506.574 288.477C507.563 290.182 508.057 292.187 508.057 294.494C508.057 296.812 507.557 298.807 506.557 300.477C505.557 302.136 504.108 303.409 502.21 304.295C500.324 305.182 498.04 305.625 495.358 305.625H486.136V299.693H494.165C495.574 299.693 496.744 299.5 497.676 299.114C498.608 298.727 499.301 298.148 499.756 297.375C500.222 296.602 500.455 295.642 500.455 294.494C500.455 293.335 500.222 292.358 499.756 291.562C499.301 290.767 498.602 290.165 497.659 289.756C496.727 289.335 495.551 289.125 494.131 289.125H489.154V318H481.773ZM500.625 302.114L509.301 318H501.154L492.665 302.114H500.625ZM520.25 318H512.341L524.392 283.091H533.903L545.937 318H538.028L529.284 291.068H529.011L520.25 318ZM519.756 304.278H538.437V310.04H519.756V304.278ZM580.298 283.091V318H573.923L558.735 296.028H558.48V318H551.099V283.091H557.576L572.645 305.045H572.951V283.091H580.298ZM618.157 295.312H610.691C610.555 294.347 610.276 293.489 609.856 292.739C609.436 291.977 608.896 291.33 608.237 290.795C607.578 290.261 606.816 289.852 605.953 289.568C605.1 289.284 604.174 289.142 603.174 289.142C601.367 289.142 599.793 289.591 598.453 290.489C597.112 291.375 596.072 292.67 595.333 294.375C594.595 296.068 594.225 298.125 594.225 300.545C594.225 303.034 594.595 305.125 595.333 306.818C596.083 308.511 597.129 309.79 598.47 310.653C599.811 311.517 601.362 311.949 603.123 311.949C604.112 311.949 605.026 311.818 605.867 311.557C606.72 311.295 607.475 310.915 608.134 310.415C608.793 309.903 609.339 309.284 609.771 308.557C610.214 307.83 610.521 307 610.691 306.068L618.157 306.102C617.964 307.705 617.481 309.25 616.708 310.739C615.947 312.216 614.918 313.54 613.623 314.71C612.339 315.869 610.805 316.79 609.021 317.472C607.248 318.142 605.242 318.477 603.004 318.477C599.89 318.477 597.106 317.773 594.651 316.364C592.208 314.955 590.276 312.915 588.856 310.244C587.447 307.574 586.742 304.341 586.742 300.545C586.742 296.739 587.458 293.5 588.89 290.83C590.322 288.159 592.265 286.125 594.72 284.727C597.174 283.318 599.936 282.614 603.004 282.614C605.026 282.614 606.901 282.898 608.629 283.466C610.367 284.034 611.907 284.864 613.248 285.955C614.589 287.034 615.68 288.358 616.521 289.926C617.373 291.494 617.918 293.29 618.157 295.312ZM624.41 318V283.091H647.932V289.176H631.79V297.494H646.722V303.58H631.79V311.915H648.001V318H624.41ZM353.843 351.131C353.707 349.756 353.122 348.687 352.088 347.926C351.054 347.165 349.65 346.784 347.878 346.784C346.673 346.784 345.656 346.955 344.826 347.295C343.997 347.625 343.361 348.085 342.917 348.676C342.486 349.267 342.27 349.938 342.27 350.688C342.247 351.312 342.378 351.858 342.662 352.324C342.957 352.79 343.361 353.193 343.872 353.534C344.383 353.864 344.974 354.153 345.645 354.403C346.315 354.642 347.031 354.847 347.792 355.017L350.929 355.767C352.451 356.108 353.849 356.562 355.122 357.131C356.395 357.699 357.497 358.398 358.429 359.227C359.361 360.057 360.082 361.034 360.593 362.159C361.116 363.284 361.383 364.574 361.395 366.028C361.383 368.165 360.838 370.017 359.758 371.585C358.69 373.142 357.145 374.352 355.122 375.216C353.111 376.068 350.684 376.494 347.843 376.494C345.025 376.494 342.571 376.062 340.48 375.199C338.4 374.335 336.775 373.057 335.605 371.364C334.446 369.659 333.838 367.551 333.781 365.04H340.923C341.003 366.21 341.338 367.187 341.929 367.972C342.531 368.744 343.332 369.33 344.332 369.727C345.343 370.114 346.486 370.307 347.758 370.307C349.008 370.307 350.093 370.125 351.014 369.761C351.946 369.398 352.667 368.892 353.179 368.244C353.69 367.597 353.946 366.852 353.946 366.011C353.946 365.227 353.713 364.568 353.247 364.034C352.792 363.5 352.122 363.045 351.236 362.67C350.361 362.295 349.287 361.955 348.014 361.648L344.213 360.693C341.27 359.977 338.946 358.858 337.241 357.335C335.537 355.812 334.69 353.761 334.701 351.182C334.69 349.068 335.253 347.222 336.389 345.642C337.537 344.062 339.111 342.83 341.111 341.943C343.111 341.057 345.383 340.614 347.929 340.614C350.52 340.614 352.781 341.057 354.713 341.943C356.656 342.83 358.167 344.062 359.247 345.642C360.326 347.222 360.883 349.051 360.917 351.131H353.843ZM372.539 376H364.63L376.681 341.091H386.193L398.227 376H390.318L381.573 349.068H381.301L372.539 376ZM372.045 362.278H390.727V368.04H372.045V362.278ZM403.388 376V341.091H410.769V369.915H425.735V376H403.388ZM431.583 376V341.091H455.106V347.176H438.964V355.494H453.895V361.58H438.964V369.915H455.174V376H431.583ZM480.871 351.131C480.735 349.756 480.149 348.687 479.115 347.926C478.081 347.165 476.678 346.784 474.905 346.784C473.701 346.784 472.683 346.955 471.854 347.295C471.024 347.625 470.388 348.085 469.945 348.676C469.513 349.267 469.297 349.938 469.297 350.688C469.274 351.312 469.405 351.858 469.689 352.324C469.985 352.79 470.388 353.193 470.899 353.534C471.411 353.864 472.002 354.153 472.672 354.403C473.343 354.642 474.058 354.847 474.82 355.017L477.956 355.767C479.479 356.108 480.877 356.562 482.149 357.131C483.422 357.699 484.524 358.398 485.456 359.227C486.388 360.057 487.11 361.034 487.621 362.159C488.144 363.284 488.411 364.574 488.422 366.028C488.411 368.165 487.865 370.017 486.786 371.585C485.718 373.142 484.172 374.352 482.149 375.216C480.138 376.068 477.712 376.494 474.871 376.494C472.053 376.494 469.598 376.062 467.507 375.199C465.428 374.335 463.803 373.057 462.632 371.364C461.473 369.659 460.865 367.551 460.808 365.04H467.951C468.03 366.21 468.365 367.187 468.956 367.972C469.558 368.744 470.36 369.33 471.36 369.727C472.371 370.114 473.513 370.307 474.786 370.307C476.036 370.307 477.121 370.125 478.041 369.761C478.973 369.398 479.695 368.892 480.206 368.244C480.718 367.597 480.973 366.852 480.973 366.011C480.973 365.227 480.74 364.568 480.274 364.034C479.82 363.5 479.149 363.045 478.263 362.67C477.388 362.295 476.314 361.955 475.041 361.648L471.24 360.693C468.297 359.977 465.973 358.858 464.269 357.335C462.564 355.812 461.718 353.761 461.729 351.182C461.718 349.068 462.28 347.222 463.416 345.642C464.564 344.062 466.138 342.83 468.138 341.943C470.138 341.057 472.411 340.614 474.956 340.614C477.547 340.614 479.808 341.057 481.74 341.943C483.683 342.83 485.195 344.062 486.274 345.642C487.354 347.222 487.911 349.051 487.945 351.131H480.871ZM518.791 376H506.416V341.091H518.893C522.405 341.091 525.427 341.79 527.961 343.188C530.496 344.574 532.444 346.568 533.808 349.17C535.183 351.773 535.871 354.886 535.871 358.511C535.871 362.148 535.183 365.273 533.808 367.886C532.444 370.5 530.484 372.506 527.927 373.903C525.382 375.301 522.336 376 518.791 376ZM513.797 369.676H518.484C520.666 369.676 522.501 369.29 523.99 368.517C525.49 367.733 526.615 366.523 527.365 364.886C528.126 363.239 528.507 361.114 528.507 358.511C528.507 355.932 528.126 353.824 527.365 352.188C526.615 350.551 525.496 349.347 524.007 348.574C522.518 347.801 520.683 347.415 518.501 347.415H513.797V369.676ZM542.298 376V341.091H565.821V347.176H549.679V355.494H564.61V361.58H549.679V369.915H565.889V376H542.298ZM578.666 376H570.756L582.808 341.091H592.319L604.353 376H596.444L587.7 349.068H587.427L578.666 376ZM578.171 362.278H596.853V368.04H578.171V362.278ZM609.515 376V341.091H616.895V369.915H631.861V376H609.515ZM656.647 351.131C656.51 349.756 655.925 348.687 654.891 347.926C653.857 347.165 652.453 346.784 650.681 346.784C649.476 346.784 648.459 346.955 647.63 347.295C646.8 347.625 646.164 348.085 645.72 348.676C645.289 349.267 645.073 349.938 645.073 350.688C645.05 351.312 645.181 351.858 645.465 352.324C645.76 352.79 646.164 353.193 646.675 353.534C647.186 353.864 647.777 354.153 648.448 354.403C649.118 354.642 649.834 354.847 650.595 355.017L653.732 355.767C655.255 356.108 656.652 356.562 657.925 357.131C659.198 357.699 660.3 358.398 661.232 359.227C662.164 360.057 662.885 361.034 663.397 362.159C663.919 363.284 664.186 364.574 664.198 366.028C664.186 368.165 663.641 370.017 662.561 371.585C661.493 373.142 659.948 374.352 657.925 375.216C655.914 376.068 653.487 376.494 650.647 376.494C647.828 376.494 645.374 376.062 643.283 375.199C641.203 374.335 639.578 373.057 638.408 371.364C637.249 369.659 636.641 367.551 636.584 365.04H643.726C643.806 366.21 644.141 367.187 644.732 367.972C645.334 368.744 646.135 369.33 647.135 369.727C648.147 370.114 649.289 370.307 650.561 370.307C651.811 370.307 652.897 370.125 653.817 369.761C654.749 369.398 655.47 368.892 655.982 368.244C656.493 367.597 656.749 366.852 656.749 366.011C656.749 365.227 656.516 364.568 656.05 364.034C655.595 363.5 654.925 363.045 654.039 362.67C653.164 362.295 652.09 361.955 650.817 361.648L647.016 360.693C644.073 359.977 641.749 358.858 640.044 357.335C638.34 355.812 637.493 353.761 637.505 351.182C637.493 349.068 638.056 347.222 639.192 345.642C640.34 344.062 641.914 342.83 643.914 341.943C645.914 341.057 648.186 340.614 650.732 340.614C653.323 340.614 655.584 341.057 657.516 341.943C659.459 342.83 660.97 344.062 662.05 345.642C663.13 347.222 663.686 349.051 663.72 351.131H656.647Z" fill="white"/>
<path d="M380.109 295.312V296.312H381.234L381.102 295.195L380.109 295.312ZM372.643 295.312L371.653 295.452L371.774 296.312H372.643V295.312ZM371.808 292.739L370.932 293.222L370.936 293.228L371.808 292.739ZM370.189 290.795L369.559 291.572L369.559 291.572L370.189 290.795ZM367.904 289.568L367.588 290.517L367.592 290.518L367.904 289.568ZM360.404 290.489L360.956 291.323L360.961 291.32L360.404 290.489ZM357.285 294.375L358.202 294.775L358.203 294.773L357.285 294.375ZM357.285 306.818L356.369 307.218L356.371 307.223L357.285 306.818ZM360.421 310.653L359.88 311.494L360.421 310.653ZM367.819 311.557L367.526 310.601L367.522 310.602L367.819 311.557ZM370.086 310.415L370.691 311.212L370.699 311.205L370.086 310.415ZM371.723 308.557L370.869 308.036L370.863 308.046L371.723 308.557ZM372.643 306.068L372.648 305.068L371.81 305.064L371.659 305.888L372.643 306.068ZM380.109 306.102L381.102 306.222L381.236 305.107L380.114 305.102L380.109 306.102ZM378.66 310.739L377.773 310.278L377.771 310.281L378.66 310.739ZM375.575 314.71L376.245 315.453L376.245 315.452L375.575 314.71ZM370.973 317.472L371.326 318.407L371.33 318.406L370.973 317.472ZM356.603 316.364L356.104 317.23L356.105 317.231L356.603 316.364ZM350.808 310.244L349.923 310.711L349.925 310.714L350.808 310.244ZM350.842 290.83L351.723 291.302L350.842 290.83ZM356.671 284.727L357.166 285.596L357.169 285.595L356.671 284.727ZM370.581 283.466L370.268 284.416L370.27 284.416L370.581 283.466ZM375.2 285.955L374.569 286.73L374.573 286.733L375.2 285.955ZM378.473 289.926L377.591 290.399L377.594 290.404L378.473 289.926ZM380.109 294.312H372.643V296.312H380.109V294.312ZM373.633 295.173C373.482 294.1 373.169 293.121 372.68 292.25L370.936 293.228C371.288 293.856 371.532 294.593 371.653 295.452L373.633 295.173ZM372.683 292.255C372.202 291.384 371.58 290.636 370.818 290.019L369.559 291.572C370.115 292.023 370.573 292.571 370.932 293.222L372.683 292.255ZM370.818 290.019C370.058 289.403 369.188 288.938 368.217 288.618L367.592 290.518C368.349 290.767 369.001 291.12 369.559 291.572L370.818 290.019ZM368.221 288.619C367.256 288.298 366.221 288.142 365.126 288.142V290.142C366.031 290.142 366.849 290.27 367.588 290.517L368.221 288.619ZM365.126 288.142C363.146 288.142 361.373 288.637 359.848 289.658L360.961 291.32C362.118 290.545 363.493 290.142 365.126 290.142V288.142ZM359.853 289.654C358.326 290.664 357.171 292.123 356.368 293.977L358.203 294.773C358.876 293.218 359.801 292.086 360.956 291.323L359.853 289.654ZM356.369 293.975C355.561 295.827 355.177 298.028 355.177 300.545H357.177C357.177 298.222 357.532 296.309 358.202 294.775L356.369 293.975ZM355.177 300.545C355.177 303.127 355.559 305.363 356.369 307.218L358.202 306.418C357.534 304.887 357.177 302.942 357.177 300.545H355.177ZM356.371 307.223C357.187 309.065 358.35 310.509 359.88 311.494L360.963 309.813C359.811 309.071 358.883 307.957 358.199 306.413L356.371 307.223ZM359.88 311.494C361.399 312.472 363.142 312.949 365.075 312.949V310.949C363.485 310.949 362.126 310.562 360.963 309.813L359.88 311.494ZM365.075 312.949C366.152 312.949 367.168 312.806 368.116 312.512L367.522 310.602C366.789 310.83 365.975 310.949 365.075 310.949V312.949ZM368.112 312.513C369.068 312.22 369.931 311.788 370.691 311.211L369.482 309.618C368.923 310.042 368.275 310.371 367.526 310.601L368.112 312.513ZM370.699 311.205C371.459 310.616 372.088 309.901 372.582 309.067L370.863 308.046C370.494 308.667 370.032 309.191 369.473 309.625L370.699 311.205ZM372.577 309.077C373.09 308.234 373.437 307.287 373.627 306.248L371.659 305.888C371.508 306.713 371.241 307.425 370.869 308.036L372.577 309.077ZM372.638 307.068L380.104 307.102L380.114 305.102L372.648 305.068L372.638 307.068ZM379.116 305.983C378.938 307.461 378.492 308.891 377.773 310.278L379.548 311.199C380.373 309.609 380.894 307.948 381.102 306.222L379.116 305.983ZM377.771 310.281C377.068 311.645 376.115 312.874 374.904 313.968L376.245 315.452C377.625 314.205 378.73 312.786 379.549 311.197L377.771 310.281ZM374.905 313.968C373.721 315.036 372.296 315.895 370.616 316.537L371.33 318.406C373.217 317.684 374.86 316.703 376.245 315.453L374.905 313.968ZM370.619 316.536C368.978 317.157 367.095 317.477 364.956 317.477V319.477C367.294 319.477 369.422 319.127 371.326 318.407L370.619 316.536ZM364.956 317.477C361.999 317.477 359.389 316.81 357.101 315.496L356.105 317.231C358.726 318.735 361.685 319.477 364.956 319.477V317.477ZM357.103 315.497C354.834 314.189 353.03 312.292 351.691 309.775L349.925 310.714C351.427 313.537 353.486 315.72 356.104 317.23L357.103 315.497ZM351.692 309.778C350.376 307.283 349.694 304.219 349.694 300.545H347.694C347.694 304.463 348.421 307.864 349.923 310.711L351.692 309.778ZM349.694 300.545C349.694 296.862 350.387 293.795 351.723 291.302L349.961 290.357C348.433 293.205 347.694 296.615 347.694 300.545H349.694ZM351.723 291.302C353.073 288.785 354.887 286.894 357.166 285.596L356.177 283.858C353.547 285.356 351.475 287.533 349.961 290.357L351.723 291.302ZM357.169 285.595C359.46 284.28 362.047 283.614 364.956 283.614V281.614C361.728 281.614 358.792 282.357 356.174 283.86L357.169 285.595ZM364.956 283.614C366.884 283.614 368.652 283.884 370.268 284.416L370.893 282.516C369.054 281.911 367.073 281.614 364.956 281.614V283.614ZM370.27 284.416C371.899 284.949 373.329 285.721 374.569 286.73L375.831 285.179C374.389 284.006 372.74 283.119 370.891 282.515L370.27 284.416ZM374.573 286.733C375.806 287.726 376.812 288.945 377.591 290.399L379.354 289.454C378.452 287.771 377.276 286.342 375.827 285.176L374.573 286.733ZM377.594 290.404C378.378 291.845 378.89 293.516 379.116 295.43L381.102 295.195C380.851 293.064 380.272 291.143 379.351 289.449L377.594 290.404ZM386.362 318H385.362V319H386.362V318ZM386.362 283.091V282.091H385.362V283.091H386.362ZM393.742 283.091H394.742V282.091H393.742V283.091ZM393.742 311.915H392.742V312.915H393.742V311.915ZM408.708 311.915H409.708V310.915H408.708V311.915ZM408.708 318V319H409.708V318H408.708ZM387.362 318V283.091H385.362V318H387.362ZM386.362 284.091H393.742V282.091H386.362V284.091ZM392.742 283.091V311.915H394.742V283.091H392.742ZM393.742 312.915H408.708V310.915H393.742V312.915ZM407.708 311.915V318H409.708V311.915H407.708ZM408.708 317H386.362V319H408.708V317ZM414.556 318H413.556V319H414.556V318ZM414.556 283.091V282.091H413.556V283.091H414.556ZM438.079 283.091H439.079V282.091H438.079V283.091ZM438.079 289.176V290.176H439.079V289.176H438.079ZM421.937 289.176V288.176H420.937V289.176H421.937ZM421.937 297.494H420.937V298.494H421.937V297.494ZM436.868 297.494H437.868V296.494H436.868V297.494ZM436.868 303.58V304.58H437.868V303.58H436.868ZM421.937 303.58V302.58H420.937V303.58H421.937ZM421.937 311.915H420.937V312.915H421.937V311.915ZM438.147 311.915H439.147V310.915H438.147V311.915ZM438.147 318V319H439.147V318H438.147ZM415.556 318V283.091H413.556V318H415.556ZM414.556 284.091H438.079V282.091H414.556V284.091ZM437.079 283.091V289.176H439.079V283.091H437.079ZM438.079 288.176H421.937V290.176H438.079V288.176ZM420.937 289.176V297.494H422.937V289.176H420.937ZM421.937 298.494H436.868V296.494H421.937V298.494ZM435.868 297.494V303.58H437.868V297.494H435.868ZM436.868 302.58H421.937V304.58H436.868V302.58ZM420.937 303.58V311.915H422.937V303.58H420.937ZM421.937 312.915H438.147V310.915H421.937V312.915ZM437.147 311.915V318H439.147V311.915H437.147ZM438.147 317H414.556V319H438.147V317ZM450.924 318V319H451.65L451.875 318.309L450.924 318ZM443.015 318L442.069 317.674L441.611 319H443.015V318ZM455.066 283.091V282.091H454.353L454.12 282.765L455.066 283.091ZM464.577 283.091L465.522 282.765L465.29 282.091H464.577V283.091ZM476.611 318V319H478.014L477.557 317.674L476.611 318ZM468.702 318L467.751 318.309L467.975 319H468.702V318ZM459.958 291.068L460.909 290.759L460.684 290.068H459.958V291.068ZM459.685 291.068V290.068H458.959L458.734 290.759L459.685 291.068ZM450.429 304.278V303.278H449.429V304.278H450.429ZM469.111 304.278H470.111V303.278H469.111V304.278ZM469.111 310.04V311.04H470.111V310.04H469.111ZM450.429 310.04H449.429V311.04H450.429V310.04ZM450.924 317H443.015V319H450.924V317ZM443.96 318.326L456.011 283.417L454.12 282.765L442.069 317.674L443.96 318.326ZM455.066 284.091H464.577V282.091H455.066V284.091ZM463.632 283.417L475.666 318.326L477.557 317.674L465.522 282.765L463.632 283.417ZM476.611 317H468.702V319H476.611V317ZM469.653 317.691L460.909 290.759L459.007 291.377L467.751 318.309L469.653 317.691ZM459.958 290.068H459.685V292.068H459.958V290.068ZM458.734 290.759L449.973 317.691L451.875 318.309L460.636 291.378L458.734 290.759ZM450.429 305.278H469.111V303.278H450.429V305.278ZM468.111 304.278V310.04H470.111V304.278H468.111ZM469.111 309.04H450.429V311.04H469.111V309.04ZM451.429 310.04V304.278H449.429V310.04H451.429ZM481.773 318H480.773V319H481.773V318ZM481.773 283.091V282.091H480.773V283.091H481.773ZM502.296 284.506L501.844 285.398L501.851 285.401L502.296 284.506ZM506.574 288.477L505.705 288.972L505.709 288.979L506.574 288.477ZM506.557 300.477L507.413 300.993L507.415 300.991L506.557 300.477ZM502.21 304.295L501.787 303.389L501.785 303.39L502.21 304.295ZM486.136 305.625H485.136V306.625H486.136V305.625ZM486.136 299.693V298.693H485.136V299.693H486.136ZM497.676 299.114L498.059 300.037L497.676 299.114ZM499.756 297.375L498.899 296.859L498.894 296.868L499.756 297.375ZM499.756 291.562L498.887 292.059L498.893 292.068L499.756 291.562ZM497.659 289.756L497.248 290.667L497.255 290.67L497.261 290.673L497.659 289.756ZM489.154 289.125V288.125H488.154V289.125H489.154ZM489.154 318V319H490.154V318H489.154ZM500.625 302.114L501.503 301.634L501.218 301.114H500.625V302.114ZM509.301 318V319H510.987L510.179 317.521L509.301 318ZM501.154 318L500.272 318.471L500.554 319H501.154V318ZM492.665 302.114V301.114H490.997L491.783 302.585L492.665 302.114ZM482.773 318V283.091H480.773V318H482.773ZM481.773 284.091H495.546V282.091H481.773V284.091ZM495.546 284.091C498.065 284.091 500.152 284.542 501.844 285.398L502.747 283.613C500.712 282.583 498.299 282.091 495.546 282.091V284.091ZM501.851 285.401C503.559 286.25 504.832 287.44 505.705 288.972L507.443 287.982C506.361 286.083 504.782 284.625 502.741 283.61L501.851 285.401ZM505.709 288.979C506.595 290.507 507.057 292.333 507.057 294.494H509.057C509.057 292.042 508.53 289.857 507.439 287.976L505.709 288.979ZM507.057 294.494C507.057 296.666 506.59 298.476 505.699 299.964L507.415 300.991C508.524 299.138 509.057 296.959 509.057 294.494H507.057ZM505.7 299.961C504.811 301.436 503.52 302.58 501.787 303.389L502.634 305.201C504.696 304.238 506.302 302.837 507.413 300.993L505.7 299.961ZM501.785 303.39C500.064 304.199 497.933 304.625 495.358 304.625V306.625C498.146 306.625 500.584 306.165 502.636 305.201L501.785 303.39ZM495.358 304.625H486.136V306.625H495.358V304.625ZM487.136 305.625V299.693H485.136V305.625H487.136ZM486.136 300.693H494.165V298.693H486.136V300.693ZM494.165 300.693C495.657 300.693 496.968 300.49 498.059 300.037L497.293 298.19C496.521 298.51 495.491 298.693 494.165 298.693V300.693ZM498.059 300.037C499.165 299.579 500.039 298.865 500.618 297.882L498.894 296.868C498.563 297.43 498.051 297.876 497.293 298.19L498.059 300.037ZM500.612 297.891C501.194 296.926 501.455 295.775 501.455 294.494H499.455C499.455 295.509 499.249 296.279 498.899 296.859L500.612 297.891ZM501.455 294.494C501.455 293.203 501.195 292.041 500.619 291.057L498.893 292.068C499.249 292.675 499.455 293.468 499.455 294.494H501.455ZM500.624 291.066C500.049 290.061 499.173 289.322 498.057 288.838L497.261 290.673C498.032 291.007 498.553 291.473 498.888 292.059L500.624 291.066ZM498.07 288.844C496.969 288.347 495.641 288.125 494.131 288.125V290.125C495.461 290.125 496.485 290.323 497.248 290.667L498.07 288.844ZM494.131 288.125H489.154V290.125H494.131V288.125ZM488.154 289.125V318H490.154V289.125H488.154ZM489.154 317H481.773V319H489.154V317ZM499.747 302.593L508.424 318.479L510.179 317.521L501.503 301.634L499.747 302.593ZM509.301 317H501.154V319H509.301V317ZM502.035 317.529L493.547 301.642L491.783 302.585L500.272 318.471L502.035 317.529ZM492.665 303.114H500.625V301.114H492.665V303.114ZM520.25 318V319H520.976L521.201 318.309L520.25 318ZM512.341 318L511.396 317.674L510.938 319H512.341V318ZM524.392 283.091V282.091H523.679L523.447 282.765L524.392 283.091ZM533.903 283.091L534.849 282.765L534.616 282.091H533.903V283.091ZM545.937 318V319H547.34L546.883 317.674L545.937 318ZM538.028 318L537.077 318.309L537.302 319H538.028V318ZM529.284 291.068L530.235 290.759L530.011 290.068H529.284V291.068ZM529.011 291.068V290.068H528.285L528.06 290.759L529.011 291.068ZM519.756 304.278V303.278H518.756V304.278H519.756ZM538.437 304.278H539.437V303.278H538.437V304.278ZM538.437 310.04V311.04H539.437V310.04H538.437ZM519.756 310.04H518.756V311.04H519.756V310.04ZM520.25 317H512.341V319H520.25V317ZM513.286 318.326L525.337 283.417L523.447 282.765L511.396 317.674L513.286 318.326ZM524.392 284.091H533.903V282.091H524.392V284.091ZM532.958 283.417L544.992 318.326L546.883 317.674L534.849 282.765L532.958 283.417ZM545.937 317H538.028V319H545.937V317ZM538.979 317.691L530.235 290.759L528.333 291.377L537.077 318.309L538.979 317.691ZM529.284 290.068H529.011V292.068H529.284V290.068ZM528.06 290.759L519.299 317.691L521.201 318.309L529.962 291.378L528.06 290.759ZM519.756 305.278H538.437V303.278H519.756V305.278ZM537.437 304.278V310.04H539.437V304.278H537.437ZM538.437 309.04H519.756V311.04H538.437V309.04ZM520.756 310.04V304.278H518.756V310.04H520.756ZM580.298 283.091H581.298V282.091H580.298V283.091ZM580.298 318V319H581.298V318H580.298ZM573.923 318L573.1 318.569L573.399 319H573.923V318ZM558.735 296.028L559.558 295.46L559.26 295.028H558.735V296.028ZM558.48 296.028V295.028H557.48V296.028H558.48ZM558.48 318V319H559.48V318H558.48ZM551.099 318H550.099V319H551.099V318ZM551.099 283.091V282.091H550.099V283.091H551.099ZM557.576 283.091L558.401 282.525L558.103 282.091H557.576V283.091ZM572.645 305.045L571.82 305.611L572.118 306.045H572.645V305.045ZM572.951 305.045V306.045H573.951V305.045H572.951ZM572.951 283.091V282.091H571.951V283.091H572.951ZM579.298 283.091V318H581.298V283.091H579.298ZM580.298 317H573.923V319H580.298V317ZM574.746 317.431L559.558 295.46L557.913 296.597L573.1 318.569L574.746 317.431ZM558.735 295.028H558.48V297.028H558.735V295.028ZM557.48 296.028V318H559.48V296.028H557.48ZM558.48 317H551.099V319H558.48V317ZM552.099 318V283.091H550.099V318H552.099ZM551.099 284.091H557.576V282.091H551.099V284.091ZM556.752 283.657L571.82 305.611L573.469 304.48L558.401 282.525L556.752 283.657ZM572.645 306.045H572.951V304.045H572.645V306.045ZM573.951 305.045V283.091H571.951V305.045H573.951ZM572.951 284.091H580.298V282.091H572.951V284.091ZM618.157 295.312V296.312H619.282L619.15 295.195L618.157 295.312ZM610.691 295.312L609.701 295.452L609.822 296.312H610.691V295.312ZM609.856 292.739L608.981 293.222L608.984 293.228L609.856 292.739ZM608.237 290.795L607.607 291.572V291.572L608.237 290.795ZM605.953 289.568L605.636 290.517L605.64 290.518L605.953 289.568ZM598.453 290.489L599.004 291.323L599.009 291.32L598.453 290.489ZM595.333 294.375L596.25 294.775L596.251 294.773L595.333 294.375ZM595.333 306.818L594.417 307.218L594.419 307.223L595.333 306.818ZM598.47 310.653L597.928 311.494L598.47 310.653ZM605.867 311.557L605.574 310.601L605.571 310.602L605.867 311.557ZM608.134 310.415L608.739 311.212L608.747 311.205L608.134 310.415ZM609.771 308.557L608.917 308.036L608.911 308.046L609.771 308.557ZM610.691 306.068L610.696 305.068L609.858 305.064L609.708 305.888L610.691 306.068ZM618.157 306.102L619.15 306.222L619.284 305.107L618.162 305.102L618.157 306.102ZM616.708 310.739L615.821 310.278L615.819 310.281L616.708 310.739ZM613.623 314.71L614.293 315.453L614.293 315.452L613.623 314.71ZM609.021 317.472L609.374 318.407L609.378 318.406L609.021 317.472ZM594.651 316.364L594.152 317.23L594.154 317.231L594.651 316.364ZM588.856 310.244L587.972 310.711L587.973 310.714L588.856 310.244ZM588.89 290.83L589.771 291.302L588.89 290.83ZM594.72 284.727L595.214 285.596L595.217 285.595L594.72 284.727ZM608.629 283.466L608.316 284.416L608.318 284.416L608.629 283.466ZM613.248 285.955L612.617 286.73L612.621 286.733L613.248 285.955ZM616.521 289.926L615.639 290.399L615.642 290.404L616.521 289.926ZM618.157 294.312H610.691V296.312H618.157V294.312ZM611.681 295.173C611.53 294.1 611.217 293.121 610.728 292.25L608.984 293.228C609.336 293.856 609.58 294.593 609.701 295.452L611.681 295.173ZM610.731 292.255C610.25 291.384 609.628 290.636 608.866 290.019L607.607 291.572C608.164 292.023 608.621 292.571 608.981 293.222L610.731 292.255ZM608.866 290.019C608.106 289.403 607.236 288.938 606.265 288.618L605.64 290.518C606.397 290.767 607.049 291.12 607.607 291.572L608.866 290.019ZM606.269 288.619C605.304 288.298 604.27 288.142 603.174 288.142V290.142C604.079 290.142 604.897 290.27 605.636 290.517L606.269 288.619ZM603.174 288.142C601.194 288.142 599.421 288.637 597.896 289.658L599.009 291.32C600.166 290.545 601.541 290.142 603.174 290.142V288.142ZM597.901 289.654C596.374 290.664 595.219 292.123 594.416 293.977L596.251 294.773C596.925 293.218 597.849 292.086 599.004 291.323L597.901 289.654ZM594.417 293.975C593.609 295.827 593.225 298.028 593.225 300.545H595.225C595.225 298.222 595.58 296.309 596.25 294.775L594.417 293.975ZM593.225 300.545C593.225 303.127 593.607 305.363 594.417 307.218L596.25 306.418C595.582 304.887 595.225 302.942 595.225 300.545H593.225ZM594.419 307.223C595.235 309.065 596.398 310.509 597.928 311.494L599.011 309.813C597.859 309.071 596.932 307.957 596.248 306.413L594.419 307.223ZM597.928 311.494C599.447 312.472 601.19 312.949 603.123 312.949V310.949C601.533 310.949 600.174 310.562 599.011 309.813L597.928 311.494ZM603.123 312.949C604.2 312.949 605.216 312.806 606.164 312.512L605.571 310.602C604.837 310.83 604.023 310.949 603.123 310.949V312.949ZM606.161 312.513C607.116 312.22 607.979 311.788 608.739 311.211L607.53 309.618C606.971 310.042 606.323 310.371 605.574 310.601L606.161 312.513ZM608.747 311.205C609.507 310.616 610.136 309.901 610.631 309.067L608.911 308.046C608.542 308.667 608.08 309.191 607.521 309.625L608.747 311.205ZM610.625 309.077C611.138 308.234 611.485 307.287 611.675 306.248L609.708 305.888C609.557 306.713 609.289 307.425 608.917 308.036L610.625 309.077ZM610.687 307.068L618.153 307.102L618.162 305.102L610.696 305.068L610.687 307.068ZM617.164 305.983C616.986 307.461 616.54 308.891 615.821 310.278L617.596 311.199C618.422 309.609 618.942 307.948 619.15 306.222L617.164 305.983ZM615.819 310.281C615.116 311.645 614.163 312.874 612.953 313.968L614.293 315.452C615.674 314.205 616.778 312.786 617.597 311.197L615.819 310.281ZM612.953 313.968C611.77 315.036 610.345 315.895 608.664 316.537L609.378 318.406C611.265 317.684 612.908 316.703 614.293 315.453L612.953 313.968ZM608.667 316.536C607.026 317.157 605.143 317.477 603.004 317.477V319.477C605.342 319.477 607.47 319.127 609.374 318.407L608.667 316.536ZM603.004 317.477C600.047 317.477 597.437 316.81 595.149 315.496L594.154 317.231C596.774 318.735 599.733 319.477 603.004 319.477V317.477ZM595.151 315.497C592.882 314.189 591.078 312.292 589.739 309.775L587.973 310.714C589.475 313.537 591.534 315.72 594.152 317.23L595.151 315.497ZM589.74 309.778C588.424 307.283 587.742 304.219 587.742 300.545H585.742C585.742 304.463 586.469 307.864 587.972 310.711L589.74 309.778ZM587.742 300.545C587.742 296.862 588.435 293.795 589.771 291.302L588.009 290.357C586.482 293.205 585.742 296.615 585.742 300.545H587.742ZM589.771 291.302C591.121 288.785 592.935 286.894 595.214 285.596L594.225 283.858C591.595 285.356 589.523 287.533 588.009 290.357L589.771 291.302ZM595.217 285.595C597.508 284.28 600.095 283.614 603.004 283.614V281.614C599.776 281.614 596.84 282.357 594.222 283.86L595.217 285.595ZM603.004 283.614C604.932 283.614 606.7 283.884 608.316 284.416L608.941 282.516C607.102 281.911 605.121 281.614 603.004 281.614V283.614ZM608.318 284.416C609.947 284.949 611.377 285.721 612.617 286.73L613.879 285.179C612.438 284.006 610.788 283.119 608.939 282.515L608.318 284.416ZM612.621 286.733C613.854 287.726 614.86 288.945 615.639 290.399L617.402 289.454C616.5 287.771 615.324 286.342 613.875 285.176L612.621 286.733ZM615.642 290.404C616.426 291.845 616.938 293.516 617.164 295.43L619.15 295.195C618.899 293.064 618.32 291.143 617.399 289.449L615.642 290.404ZM624.41 318H623.41V319H624.41V318ZM624.41 283.091V282.091H623.41V283.091H624.41ZM647.932 283.091H648.932V282.091H647.932V283.091ZM647.932 289.176V290.176H648.932V289.176H647.932ZM631.79 289.176V288.176H630.79V289.176H631.79ZM631.79 297.494H630.79V298.494H631.79V297.494ZM646.722 297.494H647.722V296.494H646.722V297.494ZM646.722 303.58V304.58H647.722V303.58H646.722ZM631.79 303.58V302.58H630.79V303.58H631.79ZM631.79 311.915H630.79V312.915H631.79V311.915ZM648.001 311.915H649.001V310.915H648.001V311.915ZM648.001 318V319H649.001V318H648.001ZM625.41 318V283.091H623.41V318H625.41ZM624.41 284.091H647.932V282.091H624.41V284.091ZM646.932 283.091V289.176H648.932V283.091H646.932ZM647.932 288.176H631.79V290.176H647.932V288.176ZM630.79 289.176V297.494H632.79V289.176H630.79ZM631.79 298.494H646.722V296.494H631.79V298.494ZM645.722 297.494V303.58H647.722V297.494H645.722ZM646.722 302.58H631.79V304.58H646.722V302.58ZM630.79 303.58V311.915H632.79V303.58H630.79ZM631.79 312.915H648.001V310.915H631.79V312.915ZM647.001 311.915V318H649.001V311.915H647.001ZM648.001 317H624.41V319H648.001V317ZM353.843 351.131L352.848 351.229L352.938 352.131H353.843V351.131ZM344.826 347.295L345.196 348.225L345.207 348.22L344.826 347.295ZM342.917 348.676L342.117 348.076L342.11 348.086L342.917 348.676ZM342.27 350.688L343.269 350.724L343.27 350.706V350.688H342.27ZM342.662 352.324L341.808 352.844L341.812 352.852L341.817 352.859L342.662 352.324ZM343.872 353.534L343.317 354.366L343.324 354.37L343.33 354.375L343.872 353.534ZM345.645 354.403L345.295 355.34L345.302 355.343L345.309 355.346L345.645 354.403ZM347.792 355.017L348.025 354.044L348.018 354.043L348.011 354.041L347.792 355.017ZM350.929 355.767L350.696 356.74L350.703 356.741L350.71 356.743L350.929 355.767ZM355.122 357.131L354.714 358.044L355.122 357.131ZM358.429 359.227L359.094 358.48L358.429 359.227ZM360.593 362.159L359.683 362.573L359.687 362.58L360.593 362.159ZM361.395 366.028L362.395 366.034L362.395 366.021L361.395 366.028ZM359.758 371.585L358.935 371.018L358.934 371.019L359.758 371.585ZM355.122 375.216L355.512 376.137L355.515 376.136L355.122 375.216ZM340.48 375.199L340.096 376.122L340.098 376.123L340.48 375.199ZM335.605 371.364L334.778 371.926L334.782 371.932L335.605 371.364ZM333.781 365.04V364.04H332.758L332.781 365.062L333.781 365.04ZM340.923 365.04L341.921 364.972L341.857 364.04H340.923V365.04ZM341.929 367.972L341.13 368.573L341.135 368.58L341.14 368.586L341.929 367.972ZM344.332 369.727L343.962 370.657L343.975 370.661L344.332 369.727ZM351.014 369.761L350.65 368.83L350.646 368.831L351.014 369.761ZM353.179 368.244L353.964 368.864H353.964L353.179 368.244ZM353.247 364.034L352.485 364.682L352.493 364.691L353.247 364.034ZM351.236 362.67L350.842 363.59L350.846 363.591L351.236 362.67ZM348.014 361.648L347.77 362.618L347.78 362.62L348.014 361.648ZM344.213 360.693L344.456 359.723L344.449 359.722L344.213 360.693ZM337.241 357.335L336.575 358.081L337.241 357.335ZM334.701 351.182L335.701 351.186L335.701 351.176L334.701 351.182ZM336.389 345.642L335.58 345.054L335.577 345.058L336.389 345.642ZM354.713 341.943L354.296 342.852L354.298 342.853L354.713 341.943ZM359.247 345.642L358.421 346.206L359.247 345.642ZM360.917 351.131V352.131H361.934L361.917 351.114L360.917 351.131ZM354.839 351.032C354.677 349.399 353.962 348.064 352.681 347.121L351.495 348.731C352.282 349.311 352.738 350.112 352.848 351.229L354.839 351.032ZM352.681 347.121C351.42 346.193 349.784 345.784 347.878 345.784V347.784C349.516 347.784 350.687 348.137 351.495 348.731L352.681 347.121ZM347.878 345.784C346.585 345.784 345.43 345.966 344.446 346.371L345.207 348.22C345.882 347.943 346.761 347.784 347.878 347.784V345.784ZM344.457 346.366C343.492 346.749 342.692 347.31 342.117 348.076L343.717 349.276C344.029 348.861 344.501 348.501 345.196 348.225L344.457 346.366ZM342.11 348.086C341.55 348.853 341.27 349.731 341.27 350.688H343.27C343.27 350.144 343.421 349.681 343.725 349.266L342.11 348.086ZM341.27 350.651C341.241 351.443 341.407 352.188 341.808 352.844L343.515 351.803C343.348 351.528 343.252 351.182 343.269 350.724L341.27 350.651ZM341.817 352.859C342.196 353.456 342.703 353.957 343.317 354.366L344.427 352.702C344.018 352.43 343.719 352.123 343.506 351.788L341.817 352.859ZM343.33 354.375C343.911 354.749 344.569 355.07 345.295 355.34L345.994 353.466C345.379 353.237 344.855 352.978 344.414 352.694L343.33 354.375ZM345.309 355.346C346.021 355.599 346.777 355.814 347.574 355.993L348.011 354.041C347.285 353.879 346.609 353.685 345.98 353.461L345.309 355.346ZM347.56 355.99L350.696 356.74L351.161 354.794L348.025 354.044L347.56 355.99ZM350.71 356.743C352.176 357.071 353.509 357.506 354.714 358.044L355.53 356.218C354.189 355.619 352.727 355.145 351.147 354.791L350.71 356.743ZM354.714 358.044C355.904 358.575 356.917 359.22 357.764 359.974L359.094 358.48C358.077 357.575 356.885 356.823 355.53 356.218L354.714 358.044ZM357.764 359.974C358.592 360.712 359.23 361.576 359.683 362.573L361.504 361.745C360.934 360.492 360.129 359.402 359.094 358.48L357.764 359.974ZM359.687 362.58C360.14 363.555 360.384 364.7 360.395 366.036L362.395 366.021C362.382 364.448 362.093 363.013 361.5 361.738L359.687 362.58ZM360.395 366.023C360.384 367.984 359.887 369.635 358.935 371.018L360.582 372.152C361.789 370.399 362.382 368.345 362.395 366.034L360.395 366.023ZM358.934 371.019C357.99 372.395 356.607 373.495 354.729 374.296L355.515 376.136C357.683 375.21 359.39 373.889 360.583 372.151L358.934 371.019ZM354.732 374.295C352.875 375.082 350.589 375.494 347.843 375.494V377.494C350.78 377.494 353.346 377.054 355.512 376.137L354.732 374.295ZM347.843 375.494C345.125 375.494 342.806 375.078 340.862 374.275L340.098 376.123C342.336 377.047 344.925 377.494 347.843 377.494V375.494ZM340.863 374.275C338.944 373.478 337.478 372.315 336.427 370.795L334.782 371.932C336.072 373.798 337.857 375.192 340.096 376.122L340.863 374.275ZM336.432 370.801C335.403 369.288 334.834 367.378 334.781 365.017L332.781 365.062C332.841 367.724 333.489 370.03 334.778 371.926L336.432 370.801ZM333.781 366.04H340.923V364.04H333.781V366.04ZM339.925 365.108C340.015 366.433 340.401 367.606 341.13 368.573L342.727 367.37C342.274 366.769 341.99 365.987 341.921 364.972L339.925 365.108ZM341.14 368.586C341.862 369.513 342.814 370.2 343.963 370.656L344.702 368.798C343.85 368.459 343.2 367.976 342.717 367.357L341.14 368.586ZM343.975 370.661C345.119 371.098 346.385 371.307 347.758 371.307V369.307C346.586 369.307 345.568 369.129 344.689 368.793L343.975 370.661ZM347.758 371.307C349.102 371.307 350.318 371.112 351.381 370.691L350.646 368.831C349.869 369.138 348.914 369.307 347.758 369.307V371.307ZM351.377 370.693C352.44 370.278 353.321 369.678 353.964 368.864L352.394 367.625C352.014 368.106 351.452 368.517 350.65 368.83L351.377 370.693ZM353.964 368.864C354.617 368.036 354.946 367.073 354.946 366.011H352.946C352.946 366.632 352.763 367.157 352.394 367.625L353.964 368.864ZM354.946 366.011C354.946 365.013 354.643 364.113 354 363.377L352.493 364.691C352.783 365.024 352.946 365.441 352.946 366.011H354.946ZM354.008 363.386C353.422 362.697 352.604 362.164 351.625 361.749L350.846 363.591C351.639 363.927 352.162 364.303 352.485 364.682L354.008 363.386ZM351.629 361.751C350.688 361.348 349.557 360.991 348.248 360.676L347.78 362.62C349.016 362.918 350.033 363.243 350.842 363.59L351.629 361.751ZM348.257 360.678L344.456 359.723L343.969 361.663L347.77 362.618L348.257 360.678ZM344.449 359.722C341.616 359.032 339.456 357.973 337.907 356.589L336.575 358.081C338.435 359.743 340.924 360.922 343.976 361.665L344.449 359.722ZM337.907 356.589C336.445 355.283 335.691 353.52 335.701 351.186L333.701 351.177C333.689 354.002 334.628 356.342 336.575 358.081L337.907 356.589ZM335.701 351.176C335.691 349.255 336.199 347.619 337.201 346.226L335.577 345.058C334.307 346.824 333.689 348.881 333.701 351.187L335.701 351.176ZM337.198 346.23C338.23 344.809 339.657 343.681 341.516 342.857L340.705 341.029C338.564 341.978 336.843 343.316 335.58 345.054L337.198 346.23ZM341.516 342.857C343.369 342.036 345.5 341.614 347.929 341.614V339.614C345.266 339.614 342.852 340.078 340.705 341.029L341.516 342.857ZM347.929 341.614C350.407 341.614 352.52 342.037 354.296 342.852L355.13 341.034C353.042 340.076 350.633 339.614 347.929 339.614V341.614ZM354.298 342.853C356.095 343.673 357.456 344.794 358.421 346.206L360.072 345.078C358.878 343.331 357.217 341.986 355.128 341.033L354.298 342.853ZM358.421 346.206C359.381 347.61 359.886 349.245 359.917 351.147L361.917 351.114C361.88 348.857 361.272 346.833 360.072 345.078L358.421 346.206ZM360.917 350.131H353.843V352.131H360.917V350.131ZM372.539 376V377H373.266L373.49 376.309L372.539 376ZM364.63 376L363.685 375.674L363.227 377H364.63V376ZM376.681 341.091V340.091H375.969L375.736 340.765L376.681 341.091ZM386.193 341.091L387.138 340.765L386.906 340.091H386.193V341.091ZM398.227 376V377H399.629L399.172 375.674L398.227 376ZM390.318 376L389.367 376.309L389.591 377H390.318V376ZM381.573 349.068L382.524 348.759L382.3 348.068H381.573V349.068ZM381.301 349.068V348.068H380.574L380.35 348.759L381.301 349.068ZM372.045 362.278V361.278H371.045V362.278H372.045ZM390.727 362.278H391.727V361.278H390.727V362.278ZM390.727 368.04V369.04H391.727V368.04H390.727ZM372.045 368.04H371.045V369.04H372.045V368.04ZM372.539 375H364.63V377H372.539V375ZM365.575 376.326L377.627 341.417L375.736 340.765L363.685 375.674L365.575 376.326ZM376.681 342.091H386.193V340.091H376.681V342.091ZM385.247 341.417L397.281 376.326L399.172 375.674L387.138 340.765L385.247 341.417ZM398.227 375H390.318V377H398.227V375ZM391.269 375.691L382.524 348.759L380.622 349.377L389.367 376.309L391.269 375.691ZM381.573 348.068H381.301V350.068H381.573V348.068ZM380.35 348.759L371.588 375.691L373.49 376.309L382.252 349.378L380.35 348.759ZM372.045 363.278H390.727V361.278H372.045V363.278ZM389.727 362.278V368.04H391.727V362.278H389.727ZM390.727 367.04H372.045V369.04H390.727V367.04ZM373.045 368.04V362.278H371.045V368.04H373.045ZM403.388 376H402.388V377H403.388V376ZM403.388 341.091V340.091H402.388V341.091H403.388ZM410.769 341.091H411.769V340.091H410.769V341.091ZM410.769 369.915H409.769V370.915H410.769V369.915ZM425.735 369.915H426.735V368.915H425.735V369.915ZM425.735 376V377H426.735V376H425.735ZM404.388 376V341.091H402.388V376H404.388ZM403.388 342.091H410.769V340.091H403.388V342.091ZM409.769 341.091V369.915H411.769V341.091H409.769ZM410.769 370.915H425.735V368.915H410.769V370.915ZM424.735 369.915V376H426.735V369.915H424.735ZM425.735 375H403.388V377H425.735V375ZM431.583 376H430.583V377H431.583V376ZM431.583 341.091V340.091H430.583V341.091H431.583ZM455.106 341.091H456.106V340.091H455.106V341.091ZM455.106 347.176V348.176H456.106V347.176H455.106ZM438.964 347.176V346.176H437.964V347.176H438.964ZM438.964 355.494H437.964V356.494H438.964V355.494ZM453.895 355.494H454.895V354.494H453.895V355.494ZM453.895 361.58V362.58H454.895V361.58H453.895ZM438.964 361.58V360.58H437.964V361.58H438.964ZM438.964 369.915H437.964V370.915H438.964V369.915ZM455.174 369.915H456.174V368.915H455.174V369.915ZM455.174 376V377H456.174V376H455.174ZM432.583 376V341.091H430.583V376H432.583ZM431.583 342.091H455.106V340.091H431.583V342.091ZM454.106 341.091V347.176H456.106V341.091H454.106ZM455.106 346.176H438.964V348.176H455.106V346.176ZM437.964 347.176V355.494H439.964V347.176H437.964ZM438.964 356.494H453.895V354.494H438.964V356.494ZM452.895 355.494V361.58H454.895V355.494H452.895ZM453.895 360.58H438.964V362.58H453.895V360.58ZM437.964 361.58V369.915H439.964V361.58H437.964ZM438.964 370.915H455.174V368.915H438.964V370.915ZM454.174 369.915V376H456.174V369.915H454.174ZM455.174 375H431.583V377H455.174V375ZM480.871 351.131L479.876 351.229L479.965 352.131H480.871V351.131ZM471.854 347.295L472.223 348.225L472.234 348.22L471.854 347.295ZM469.945 348.676L469.145 348.076L469.137 348.086L469.945 348.676ZM469.297 350.688L470.296 350.724L470.297 350.706V350.688H469.297ZM469.689 352.324L468.835 352.844L468.84 352.852L468.845 352.859L469.689 352.324ZM470.899 353.534L470.345 354.366L470.351 354.37L470.358 354.375L470.899 353.534ZM472.672 354.403L472.323 355.34L472.33 355.343L472.337 355.346L472.672 354.403ZM474.82 355.017L475.052 354.044L475.045 354.043L475.038 354.041L474.82 355.017ZM477.956 355.767L477.724 356.74L477.731 356.741L477.738 356.743L477.956 355.767ZM482.149 357.131L481.742 358.044L482.149 357.131ZM485.456 359.227L486.121 358.48L485.456 359.227ZM487.621 362.159L486.711 362.573L486.714 362.58L487.621 362.159ZM488.422 366.028L489.422 366.034L489.422 366.021L488.422 366.028ZM486.786 371.585L485.962 371.018L485.961 371.019L486.786 371.585ZM482.149 375.216L482.54 376.137L482.542 376.136L482.149 375.216ZM467.507 375.199L467.124 376.122L467.126 376.123L467.507 375.199ZM462.632 371.364L461.805 371.926L461.81 371.932L462.632 371.364ZM460.808 365.04V364.04H459.786L459.809 365.062L460.808 365.04ZM467.951 365.04L468.948 364.972L468.885 364.04H467.951V365.04ZM468.956 367.972L468.158 368.573L468.162 368.58L468.167 368.586L468.956 367.972ZM471.36 369.727L470.99 370.657L471.003 370.661L471.36 369.727ZM478.041 369.761L477.678 368.83L477.674 368.831L478.041 369.761ZM480.206 368.244L480.991 368.864L480.206 368.244ZM480.274 364.034L479.513 364.682L479.521 364.691L480.274 364.034ZM478.263 362.67L477.869 363.59L477.873 363.591L478.263 362.67ZM475.041 361.648L474.798 362.618L474.807 362.62L475.041 361.648ZM471.24 360.693L471.484 359.723L471.477 359.722L471.24 360.693ZM464.269 357.335L463.602 358.081L464.269 357.335ZM461.729 351.182L462.729 351.186L462.729 351.176L461.729 351.182ZM463.416 345.642L462.607 345.054L462.605 345.058L463.416 345.642ZM481.74 341.943L481.323 342.852L481.325 342.853L481.74 341.943ZM486.274 345.642L485.449 346.206L486.274 345.642ZM487.945 351.131V352.131H488.961L488.945 351.114L487.945 351.131ZM481.866 351.032C481.704 349.399 480.989 348.064 479.708 347.121L478.522 348.731C479.31 349.311 479.765 350.112 479.876 351.229L481.866 351.032ZM479.708 347.121C478.448 346.193 476.812 345.784 474.905 345.784V347.784C476.544 347.784 477.715 348.137 478.522 348.731L479.708 347.121ZM474.905 345.784C473.612 345.784 472.458 345.966 471.474 346.371L472.234 348.22C472.909 347.943 473.789 347.784 474.905 347.784V345.784ZM471.485 346.366C470.52 346.749 469.72 347.31 469.145 348.076L470.745 349.276C471.056 348.861 471.529 348.501 472.223 348.225L471.485 346.366ZM469.137 348.086C468.577 348.853 468.297 349.731 468.297 350.688H470.297C470.297 350.144 470.449 349.681 470.752 349.266L469.137 348.086ZM468.298 350.651C468.269 351.443 468.435 352.188 468.835 352.844L470.543 351.803C470.375 351.528 470.28 351.182 470.296 350.724L468.298 350.651ZM468.845 352.859C469.223 353.456 469.73 353.957 470.345 354.366L471.454 352.702C471.046 352.43 470.746 352.123 470.534 351.788L468.845 352.859ZM470.358 354.375C470.939 354.749 471.596 355.07 472.323 355.34L473.021 353.466C472.407 353.237 471.883 352.978 471.441 352.694L470.358 354.375ZM472.337 355.346C473.049 355.599 473.804 355.814 474.601 355.993L475.038 354.041C474.313 353.879 473.636 353.685 473.007 353.461L472.337 355.346ZM474.587 355.99L477.724 356.74L478.189 354.794L475.052 354.044L474.587 355.99ZM477.738 356.743C479.203 357.071 480.537 357.506 481.742 358.044L482.557 356.218C481.217 355.619 479.755 355.145 478.175 354.791L477.738 356.743ZM481.742 358.044C482.932 358.575 483.945 359.22 484.791 359.974L486.121 358.48C485.104 357.575 483.913 356.823 482.557 356.218L481.742 358.044ZM484.791 359.974C485.62 360.712 486.257 361.576 486.711 362.573L488.531 361.745C487.962 360.492 487.156 359.402 486.121 358.48L484.791 359.974ZM486.714 362.58C487.167 363.555 487.412 364.7 487.422 366.036L489.422 366.021C489.41 364.448 489.12 363.013 488.528 361.738L486.714 362.58ZM487.422 366.023C487.412 367.984 486.914 369.635 485.962 371.018L487.609 372.152C488.816 370.399 489.41 368.345 489.422 366.034L487.422 366.023ZM485.961 371.019C485.017 372.395 483.634 373.495 481.757 374.296L482.542 376.136C484.71 375.21 486.418 373.889 487.61 372.151L485.961 371.019ZM481.759 374.295C479.902 375.082 477.616 375.494 474.871 375.494V377.494C477.807 377.494 480.374 377.054 482.54 376.137L481.759 374.295ZM474.871 375.494C472.153 375.494 469.833 375.078 467.889 374.275L467.126 376.123C469.363 377.047 471.953 377.494 474.871 377.494V375.494ZM467.891 374.275C465.971 373.478 464.506 372.315 463.455 370.795L461.81 371.932C463.1 373.798 464.884 375.192 467.124 376.122L467.891 374.275ZM463.459 370.801C462.43 369.288 461.862 367.378 461.808 365.017L459.809 365.062C459.869 367.724 460.516 370.03 461.805 371.926L463.459 370.801ZM460.808 366.04H467.951V364.04H460.808V366.04ZM466.953 365.108C467.043 366.433 467.429 367.606 468.158 368.573L469.755 367.37C469.302 366.769 469.017 365.987 468.948 364.972L466.953 365.108ZM468.167 368.586C468.89 369.513 469.842 370.2 470.99 370.656L471.729 368.798C470.878 368.459 470.227 367.976 469.745 367.357L468.167 368.586ZM471.003 370.661C472.146 371.098 473.412 371.307 474.786 371.307V369.307C473.614 369.307 472.596 369.129 471.716 368.793L471.003 370.661ZM474.786 371.307C476.13 371.307 477.345 371.112 478.409 370.691L477.674 368.831C476.897 369.138 475.942 369.307 474.786 369.307V371.307ZM478.405 370.693C479.467 370.278 480.348 369.678 480.991 368.864L479.421 367.625C479.041 368.106 478.479 368.517 477.678 368.83L478.405 370.693ZM480.991 368.864C481.645 368.036 481.973 367.073 481.973 366.011H479.973C479.973 366.632 479.79 367.157 479.421 367.625L480.991 368.864ZM481.973 366.011C481.973 365.013 481.67 364.113 481.028 363.377L479.521 364.691C479.811 365.024 479.973 365.441 479.973 366.011H481.973ZM481.036 363.386C480.45 362.697 479.632 362.164 478.653 361.749L477.873 363.591C478.667 363.927 479.19 364.303 479.513 364.682L481.036 363.386ZM478.657 361.751C477.715 361.348 476.584 360.991 475.276 360.676L474.807 362.62C476.044 362.918 477.061 363.243 477.869 363.59L478.657 361.751ZM475.285 360.678L471.484 359.723L470.997 361.663L474.798 362.618L475.285 360.678ZM471.477 359.722C468.643 359.032 466.484 357.973 464.935 356.589L463.602 358.081C465.463 359.743 467.951 360.922 471.004 361.665L471.477 359.722ZM464.935 356.589C463.473 355.283 462.719 353.52 462.729 351.186L460.729 351.177C460.716 354.002 461.656 356.342 463.602 358.081L464.935 356.589ZM462.729 351.176C462.719 349.255 463.226 347.619 464.228 346.226L462.605 345.058C461.334 346.824 460.717 348.881 460.729 351.187L462.729 351.176ZM464.225 346.23C465.258 344.809 466.684 343.681 468.543 342.857L467.733 341.029C465.592 341.978 463.871 343.316 462.607 345.054L464.225 346.23ZM468.543 342.857C470.396 342.036 472.528 341.614 474.956 341.614V339.614C472.294 339.614 469.88 340.078 467.733 341.029L468.543 342.857ZM474.956 341.614C477.434 341.614 479.548 342.037 481.323 342.852L482.157 341.034C480.069 340.076 477.66 339.614 474.956 339.614V341.614ZM481.325 342.853C483.122 343.673 484.484 344.794 485.449 346.206L487.1 345.078C485.906 343.331 484.244 341.986 482.155 341.033L481.325 342.853ZM485.449 346.206C486.408 347.61 486.914 349.245 486.945 351.147L488.945 351.114C488.908 348.857 488.3 346.833 487.1 345.078L485.449 346.206ZM487.945 350.131H480.871V352.131H487.945V350.131ZM506.416 376H505.416V377H506.416V376ZM506.416 341.091V340.091H505.416V341.091H506.416ZM527.961 343.188L527.478 344.063L527.481 344.065L527.961 343.188ZM533.808 349.17L532.922 349.635L532.924 349.638L533.808 349.17ZM533.808 367.886L532.923 367.421L532.921 367.424L533.808 367.886ZM527.927 373.903L527.448 373.026L527.446 373.027L527.927 373.903ZM513.797 369.676H512.797V370.676H513.797V369.676ZM523.99 368.517L524.451 369.405L524.453 369.403L523.99 368.517ZM527.365 364.886L526.457 364.467L526.456 364.47L527.365 364.886ZM527.365 352.188L526.456 352.604L526.458 352.609L527.365 352.188ZM524.007 348.574L524.468 347.686L524.007 348.574ZM513.797 347.415V346.415H512.797V347.415H513.797ZM518.791 375H506.416V377H518.791V375ZM507.416 376V341.091H505.416V376H507.416ZM506.416 342.091H518.893V340.091H506.416V342.091ZM518.893 342.091C522.271 342.091 525.121 342.763 527.478 344.063L528.444 342.312C525.734 340.817 522.538 340.091 518.893 340.091V342.091ZM527.481 344.065C529.839 345.355 531.649 347.204 532.922 349.635L534.694 348.706C533.24 345.932 531.152 343.793 528.441 342.31L527.481 344.065ZM532.924 349.638C534.207 352.066 534.87 355.012 534.87 358.511H536.87C536.87 354.761 536.159 351.479 534.692 348.703L532.924 349.638ZM534.87 358.511C534.87 362.022 534.207 364.98 532.923 367.421L534.693 368.352C536.159 365.565 536.87 362.273 536.87 358.511H534.87ZM532.921 367.424C531.648 369.864 529.829 371.724 527.448 373.026L528.407 374.781C531.14 373.287 533.241 371.136 534.695 368.349L532.921 367.424ZM527.446 373.027C525.077 374.328 522.205 375 518.791 375V377C522.468 377 525.686 376.275 528.409 374.78L527.446 373.027ZM513.797 370.676H518.484V368.676H513.797V370.676ZM518.484 370.676C520.78 370.676 522.783 370.27 524.451 369.405L523.529 367.629C522.219 368.309 520.552 368.676 518.484 368.676V370.676ZM524.453 369.403C526.163 368.51 527.438 367.127 528.274 365.303L526.456 364.47C525.792 365.918 524.817 366.956 523.527 367.631L524.453 369.403ZM528.273 365.306C529.115 363.482 529.507 361.2 529.507 358.511H527.507C527.507 361.027 527.137 362.995 526.457 364.467L528.273 365.306ZM529.507 358.511C529.507 355.844 529.115 353.578 528.271 351.766L526.458 352.609C527.138 354.069 527.507 356.019 527.507 358.511H529.507ZM528.274 351.771C527.438 349.948 526.169 348.569 524.468 347.686L523.546 349.461C524.822 350.124 525.791 351.154 526.456 352.604L528.274 351.771ZM524.468 347.686C522.8 346.821 520.797 346.415 518.501 346.415V348.415C520.569 348.415 522.236 348.781 523.546 349.461L524.468 347.686ZM518.501 346.415H513.797V348.415H518.501V346.415ZM512.797 347.415V369.676H514.797V347.415H512.797ZM542.298 376H541.298V377H542.298V376ZM542.298 341.091V340.091H541.298V341.091H542.298ZM565.821 341.091H566.821V340.091H565.821V341.091ZM565.821 347.176V348.176H566.821V347.176H565.821ZM549.679 347.176V346.176H548.679V347.176H549.679ZM549.679 355.494H548.679V356.494H549.679V355.494ZM564.61 355.494H565.61V354.494H564.61V355.494ZM564.61 361.58V362.58H565.61V361.58H564.61ZM549.679 361.58V360.58H548.679V361.58H549.679ZM549.679 369.915H548.679V370.915H549.679V369.915ZM565.889 369.915H566.889V368.915H565.889V369.915ZM565.889 376V377H566.889V376H565.889ZM543.298 376V341.091H541.298V376H543.298ZM542.298 342.091H565.821V340.091H542.298V342.091ZM564.821 341.091V347.176H566.821V341.091H564.821ZM565.821 346.176H549.679V348.176H565.821V346.176ZM548.679 347.176V355.494H550.679V347.176H548.679ZM549.679 356.494H564.61V354.494H549.679V356.494ZM563.61 355.494V361.58H565.61V355.494H563.61ZM564.61 360.58H549.679V362.58H564.61V360.58ZM548.679 361.58V369.915H550.679V361.58H548.679ZM549.679 370.915H565.889V368.915H549.679V370.915ZM564.889 369.915V376H566.889V369.915H564.889ZM565.889 375H542.298V377H565.889V375ZM578.666 376V377H579.392L579.616 376.309L578.666 376ZM570.756 376L569.811 375.674L569.353 377H570.756V376ZM582.808 341.091V340.091H582.095L581.862 340.765L582.808 341.091ZM592.319 341.091L593.264 340.765L593.032 340.091H592.319V341.091ZM604.353 376V377H605.755L605.298 375.674L604.353 376ZM596.444 376L595.493 376.309L595.717 377H596.444V376ZM587.7 349.068L588.651 348.759L588.426 348.068H587.7V349.068ZM587.427 349.068V348.068H586.701L586.476 348.759L587.427 349.068ZM578.171 362.278V361.278H577.171V362.278H578.171ZM596.853 362.278H597.853V361.278H596.853V362.278ZM596.853 368.04V369.04H597.853V368.04H596.853ZM578.171 368.04H577.171V369.04H578.171V368.04ZM578.666 375H570.756V377H578.666V375ZM571.702 376.326L583.753 341.417L581.862 340.765L569.811 375.674L571.702 376.326ZM582.808 342.091H592.319V340.091H582.808V342.091ZM591.374 341.417L603.408 376.326L605.298 375.674L593.264 340.765L591.374 341.417ZM604.353 375H596.444V377H604.353V375ZM597.395 375.691L588.651 348.759L586.748 349.377L595.493 376.309L597.395 375.691ZM587.7 348.068H587.427V350.068H587.7V348.068ZM586.476 348.759L577.715 375.691L579.616 376.309L588.378 349.378L586.476 348.759ZM578.171 363.278H596.853V361.278H578.171V363.278ZM595.853 362.278V368.04H597.853V362.278H595.853ZM596.853 367.04H578.171V369.04H596.853V367.04ZM579.171 368.04V362.278H577.171V368.04H579.171ZM609.515 376H608.515V377H609.515V376ZM609.515 341.091V340.091H608.515V341.091H609.515ZM616.895 341.091H617.895V340.091H616.895V341.091ZM616.895 369.915H615.895V370.915H616.895V369.915ZM631.861 369.915H632.861V368.915H631.861V369.915ZM631.861 376V377H632.861V376H631.861ZM610.515 376V341.091H608.515V376H610.515ZM609.515 342.091H616.895V340.091H609.515V342.091ZM615.895 341.091V369.915H617.895V341.091H615.895ZM616.895 370.915H631.861V368.915H616.895V370.915ZM630.861 369.915V376H632.861V369.915H630.861ZM631.861 375H609.515V377H631.861V375ZM656.647 351.131L655.651 351.229L655.741 352.131H656.647V351.131ZM647.63 347.295L647.999 348.225L648.01 348.22L647.63 347.295ZM645.72 348.676L644.92 348.076L644.913 348.086L645.72 348.676ZM645.073 350.688L646.072 350.724L646.073 350.706V350.688H645.073ZM645.465 352.324L644.611 352.844L644.616 352.852L644.62 352.859L645.465 352.324ZM646.675 353.534L646.12 354.366L646.127 354.37L646.133 354.375L646.675 353.534ZM648.448 354.403L648.098 355.34L648.105 355.343L648.112 355.346L648.448 354.403ZM650.595 355.017L650.828 354.044L650.821 354.043L650.814 354.041L650.595 355.017ZM653.732 355.767L653.499 356.74L653.506 356.741L653.513 356.743L653.732 355.767ZM657.925 357.131L657.517 358.044L657.925 357.131ZM661.232 359.227L661.897 358.48L661.232 359.227ZM663.397 362.159L662.486 362.573L662.49 362.58L663.397 362.159ZM664.198 366.028L665.198 366.034L665.198 366.021L664.198 366.028ZM662.561 371.585L661.738 371.018L661.737 371.019L662.561 371.585ZM657.925 375.216L658.315 376.137L658.318 376.136L657.925 375.216ZM643.283 375.199L642.899 376.122L642.901 376.123L643.283 375.199ZM638.408 371.364L637.581 371.926L637.585 371.932L638.408 371.364ZM636.584 365.04V364.04H635.561L635.584 365.062L636.584 365.04ZM643.726 365.04L644.724 364.972L644.66 364.04H643.726V365.04ZM644.732 367.972L643.933 368.573L643.938 368.58L643.943 368.586L644.732 367.972ZM647.135 369.727L646.766 370.657L646.778 370.661L647.135 369.727ZM653.817 369.761L653.453 368.83L653.45 368.831L653.817 369.761ZM655.982 368.244L656.767 368.864L655.982 368.244ZM656.05 364.034L655.288 364.682L655.296 364.691L656.05 364.034ZM654.039 362.67L653.645 363.59L653.649 363.591L654.039 362.67ZM650.817 361.648L650.573 362.618L650.583 362.62L650.817 361.648ZM647.016 360.693L647.259 359.723L647.252 359.722L647.016 360.693ZM640.044 357.335L639.378 358.081L640.044 357.335ZM637.505 351.182L638.505 351.186L638.505 351.176L637.505 351.182ZM639.192 345.642L638.383 345.054L638.38 345.058L639.192 345.642ZM657.516 341.943L657.099 342.852L657.101 342.853L657.516 341.943ZM662.05 345.642L661.224 346.206L662.05 345.642ZM663.72 351.131V352.131H664.737L664.72 351.114L663.72 351.131ZM657.642 351.032C657.48 349.399 656.765 348.064 655.484 347.121L654.298 348.731C655.085 349.311 655.541 350.112 655.651 351.229L657.642 351.032ZM655.484 347.121C654.223 346.193 652.587 345.784 650.681 345.784V347.784C652.319 347.784 653.49 348.137 654.298 348.731L655.484 347.121ZM650.681 345.784C649.388 345.784 648.233 345.966 647.249 346.371L648.01 348.22C648.685 347.943 649.564 347.784 650.681 347.784V345.784ZM647.26 346.366C646.295 346.749 645.495 347.31 644.92 348.076L646.52 349.276C646.832 348.861 647.305 348.501 647.999 348.225L647.26 346.366ZM644.913 348.086C644.353 348.853 644.073 349.731 644.073 350.688H646.073C646.073 350.144 646.224 349.681 646.528 349.266L644.913 348.086ZM644.073 350.651C644.045 351.443 644.211 352.188 644.611 352.844L646.319 351.803C646.151 351.528 646.055 351.182 646.072 350.724L644.073 350.651ZM644.62 352.859C644.999 353.456 645.506 353.957 646.12 354.366L647.23 352.702C646.821 352.43 646.522 352.123 646.309 351.788L644.62 352.859ZM646.133 354.375C646.715 354.749 647.372 355.07 648.098 355.34L648.797 353.466C648.183 353.237 647.658 352.978 647.217 352.694L646.133 354.375ZM648.112 355.346C648.825 355.599 649.58 355.814 650.377 355.993L650.814 354.041C650.088 353.879 649.412 353.685 648.783 353.461L648.112 355.346ZM650.363 355.99L653.499 356.74L653.964 354.794L650.828 354.044L650.363 355.99ZM653.513 356.743C654.979 357.071 656.312 357.506 657.517 358.044L658.333 356.218C656.992 355.619 655.53 355.145 653.95 354.791L653.513 356.743ZM657.517 358.044C658.707 358.575 659.72 359.22 660.567 359.974L661.897 358.48C660.88 357.575 659.688 356.823 658.333 356.218L657.517 358.044ZM660.567 359.974C661.396 360.712 662.033 361.576 662.486 362.573L664.307 361.745C663.737 360.492 662.932 359.402 661.897 358.48L660.567 359.974ZM662.49 362.58C662.943 363.555 663.187 364.7 663.198 366.036L665.198 366.021C665.185 364.448 664.896 363.013 664.303 361.738L662.49 362.58ZM663.198 366.023C663.187 367.984 662.69 369.635 661.738 371.018L663.385 372.152C664.592 370.399 665.185 368.345 665.198 366.034L663.198 366.023ZM661.737 371.019C660.793 372.395 659.41 373.495 657.532 374.296L658.318 376.136C660.486 375.21 662.194 373.889 663.386 372.151L661.737 371.019ZM657.535 374.295C655.678 375.082 653.392 375.494 650.647 375.494V377.494C653.583 377.494 656.149 377.054 658.315 376.137L657.535 374.295ZM650.647 375.494C647.928 375.494 645.609 375.078 643.665 374.275L642.901 376.123C645.139 377.047 647.729 377.494 650.647 377.494V375.494ZM643.666 374.275C641.747 373.478 640.282 372.315 639.231 370.795L637.585 371.932C638.875 373.798 640.66 375.192 642.899 376.122L643.666 374.275ZM639.235 370.801C638.206 369.288 637.637 367.378 637.584 365.017L635.584 365.062C635.645 367.724 636.292 370.03 637.581 371.926L639.235 370.801ZM636.584 366.04H643.726V364.04H636.584V366.04ZM642.728 365.108C642.819 366.433 643.204 367.606 643.933 368.573L645.53 367.37C645.077 366.769 644.793 365.987 644.724 364.972L642.728 365.108ZM643.943 368.586C644.665 369.513 645.617 370.2 646.766 370.656L647.505 368.798C646.653 368.459 646.003 367.976 645.521 367.357L643.943 368.586ZM646.778 370.661C647.922 371.098 649.188 371.307 650.561 371.307V369.307C649.39 369.307 648.371 369.129 647.492 368.793L646.778 370.661ZM650.561 371.307C651.905 371.307 653.121 371.112 654.184 370.691L653.45 368.831C652.672 369.138 651.717 369.307 650.561 369.307V371.307ZM654.181 370.693C655.243 370.278 656.124 369.678 656.767 368.864L655.197 367.625C654.817 368.106 654.255 368.517 653.453 368.83L654.181 370.693ZM656.767 368.864C657.42 368.036 657.749 367.073 657.749 366.011H655.749C655.749 366.632 655.566 367.157 655.197 367.625L656.767 368.864ZM657.749 366.011C657.749 365.013 657.446 364.113 656.804 363.377L655.296 364.691C655.586 365.024 655.749 365.441 655.749 366.011H657.749ZM656.812 363.386C656.226 362.697 655.408 362.164 654.428 361.749L653.649 363.591C654.442 363.927 654.965 364.303 655.288 364.682L656.812 363.386ZM654.433 361.751C653.491 361.348 652.36 360.991 651.051 360.676L650.583 362.62C651.82 362.918 652.836 363.243 653.645 363.59L654.433 361.751ZM651.061 360.678L647.259 359.723L646.772 361.663L650.573 362.618L651.061 360.678ZM647.252 359.722C644.419 359.032 642.259 357.973 640.711 356.589L639.378 358.081C641.239 359.743 643.727 360.922 646.78 361.665L647.252 359.722ZM640.711 356.589C639.248 355.283 638.494 353.52 638.505 351.186L636.505 351.177C636.492 354.002 637.431 356.342 639.378 358.081L640.711 356.589ZM638.505 351.176C638.494 349.255 639.002 347.619 640.004 346.226L638.38 345.058C637.11 346.824 636.492 348.881 636.505 351.187L638.505 351.176ZM640.001 346.23C641.033 344.809 642.46 343.681 644.319 342.857L643.508 341.029C641.367 341.978 639.646 343.316 638.383 345.054L640.001 346.23ZM644.319 342.857C646.172 342.036 648.303 341.614 650.732 341.614V339.614C648.069 339.614 645.655 340.078 643.508 341.029L644.319 342.857ZM650.732 341.614C653.21 341.614 655.323 342.037 657.099 342.852L657.933 341.034C655.845 340.076 653.436 339.614 650.732 339.614V341.614ZM657.101 342.853C658.898 343.673 660.259 344.794 661.224 346.206L662.876 345.078C661.682 343.331 660.02 341.986 657.931 341.033L657.101 342.853ZM661.224 346.206C662.184 347.61 662.689 349.245 662.721 351.147L664.72 351.114C664.683 348.857 664.075 346.833 662.876 345.078L661.224 346.206ZM663.72 350.131H656.647V352.131H663.72V350.131Z" fill="black"/>
</g>
<defs>
<filter id="filter0_d_57_296" x="220" y="50" width="558" height="558" filterUnits="userSpaceOnUse" color-interpolation-filters="sRGB">
<feFlood flood-opacity="0" result="BackgroundImageFix"/>
<feColorMatrix in="SourceAlpha" type="matrix" values="0 0 0 0 0 0 0 0 0 0 0 0 0 0 0 0 0 0 127 0" result="hardAlpha"/>
<feOffset dy="4"/>
<feGaussianBlur stdDeviation="2"/>
<feComposite in2="hardAlpha" operator="out"/>
<feColorMatrix type="matrix" values="0 0 0 0 0 0 0 0 0 0 0 0 0 0 0 0 0 0 0.25 0"/>
<feBlend mode="normal" in2="BackgroundImageFix" result="effect1_dropShadow_57_296"/>
<feBlend mode="normal" in="SourceGraphic" in2="effect1_dropShadow_57_296" result="shape"/>
</filter>
<linearGradient id="paint0_linear_57_296" x1="447" y1="183.5" x2="549" y2="524.5" gradientUnits="userSpaceOnUse">
<stop stop-color="white"/>
</linearGradient>
<clipPath id="clip0_57_296">
<rect width="996" height="707" fill="white"/>
</clipPath>
</defs>
</svg>
