<svg width="251" height="64" viewBox="0 0 251 64" fill="none" xmlns="http://www.w3.org/2000/svg">
<path d="M248.063 2H245.25V2.896C241.334 3.772 240.771 7.407 240.55 8.796C240.445 9.453 240.232 10.738 239.968 12.312H190.988C189.05 12.312 188.833 14.123 189.086 15.125L194.832 40.492C195.084 41.494 196.145 42.312 197.185 42.312H240.129C241.163 42.312 242.006 43.153 242.006 44.187C242.006 45.221 241.163 46.062 240.129 46.062H193.255C192.758 46.062 192.281 46.2595 191.929 46.6112C191.578 46.9628 191.38 47.4397 191.38 47.937C191.38 48.4343 191.578 48.9112 191.929 49.2628C192.281 49.6145 192.758 49.812 193.255 49.812H195.685C194.512 50.4598 193.534 51.4103 192.853 52.5646C192.172 53.7189 191.813 55.0348 191.813 56.375H193.688C193.688 59.48 196.208 62 199.313 62C202.418 62 204.938 59.48 204.938 56.375H206.813C206.813 55.0347 206.454 53.7188 205.773 52.5645C205.092 51.4102 204.114 50.4597 202.94 49.812H229.434C228.261 50.4597 227.282 51.4102 226.601 52.5645C225.92 53.7188 225.561 55.0347 225.561 56.375H227.436C227.464 57.8487 228.069 59.2527 229.121 60.2851C230.173 61.3175 231.588 61.8959 233.062 61.8959C234.536 61.8959 235.951 61.3175 237.003 60.2851C238.055 59.2527 238.66 57.8487 238.688 56.375H240.563C240.563 55.0348 240.204 53.7191 239.523 52.5649C238.842 51.4106 237.864 50.46 236.691 49.812H240.131C241.623 49.8112 243.053 49.2183 244.108 48.1636C245.162 47.1089 245.755 45.6786 245.756 44.187C245.756 43.4482 245.61 42.7166 245.327 42.0341C245.045 41.3516 244.63 40.7314 244.108 40.2091C243.585 39.6868 242.965 39.2725 242.282 38.9899C241.6 38.7073 240.868 38.5619 240.129 38.562H239.432L241.83 23.652C242.498 19.714 243.938 11.207 244.276 9.091C244.446 8.022 244.611 7.271 245.25 6.85V7.624H248.063C248.311 7.62321 248.549 7.52437 248.724 7.34904C248.9 7.17371 248.999 6.93609 249 6.688V2.938C249 2.68956 248.901 2.45144 248.725 2.27567C248.55 2.0999 248.312 2.00079 248.063 2ZM199.313 59.188C198.567 59.1872 197.852 58.8906 197.325 58.3632C196.798 57.8358 196.501 57.1208 196.5 56.375H202.125C202.124 57.1206 201.828 57.8355 201.301 58.3629C200.774 58.8902 200.059 59.1869 199.313 59.188ZM233.063 59.188C232.317 59.1875 231.602 58.891 231.074 58.3636C230.547 57.8362 230.25 57.121 230.249 56.375H235.876C235.875 57.1206 235.578 57.8354 235.051 58.3626C234.523 58.8899 233.809 59.1867 233.063 59.188ZM230.756 16.994C230.789 16.7398 230.912 16.506 231.103 16.3349C231.294 16.1639 231.54 16.0671 231.796 16.062H237.733C238.249 16.062 238.608 16.478 238.527 16.989L237.939 20.76C237.861 21.27 237.372 21.687 236.855 21.687H231.192C231.073 21.6902 230.954 21.6674 230.845 21.6204C230.735 21.5734 230.637 21.5032 230.557 21.4147C230.477 21.3261 230.417 21.2213 230.382 21.1074C230.346 20.9935 230.336 20.8733 230.351 20.755L230.756 16.994ZM229.747 26.369C229.781 26.1151 229.904 25.8816 230.095 25.7107C230.285 25.5397 230.531 25.4427 230.787 25.437H236.27C236.787 25.437 237.145 25.853 237.067 26.364L236.624 29.198C236.545 29.708 236.057 30.125 235.54 30.125H230.283C230.164 30.1278 230.046 30.1049 229.936 30.0578C229.827 30.0106 229.729 29.9404 229.649 29.8519C229.569 29.7635 229.509 29.6588 229.473 29.545C229.438 29.4313 229.427 29.3112 229.442 29.193L229.747 26.369ZM193.866 20.777L192.916 16.972C192.792 16.47 193.114 16.062 193.631 16.062H200.69C201.208 16.062 201.675 16.481 201.73 16.994L202.134 20.756C202.149 20.8742 202.138 20.9941 202.103 21.1078C202.067 21.2215 202.007 21.3261 201.928 21.4145C201.848 21.503 201.75 21.5732 201.641 21.6204C201.531 21.6676 201.413 21.6907 201.294 21.688H195.033C194.517 21.688 193.991 21.277 193.866 20.777ZM197.137 30.125C196.621 30.125 196.095 29.715 195.971 29.215L195.255 26.348C195.13 25.846 195.45 25.438 195.967 25.438H201.696C202.213 25.438 202.681 25.857 202.736 26.37L203.04 29.194C203.055 29.3122 203.045 29.4322 203.009 29.546C202.974 29.6597 202.914 29.7644 202.834 29.8529C202.754 29.9414 202.656 30.0116 202.547 30.0588C202.438 30.1059 202.319 30.1288 202.2 30.126H197.137V30.125ZM203.106 38.563H199.241C198.722 38.563 198.199 38.153 198.074 37.653L197.358 34.786C197.234 34.284 197.554 33.876 198.072 33.876H202.602C203.119 33.876 203.587 34.295 203.644 34.808L203.946 37.632C203.961 37.7501 203.951 37.8702 203.915 37.9838C203.88 38.0975 203.82 38.2022 203.74 38.2906C203.66 38.379 203.562 38.4492 203.453 38.4962C203.343 38.5432 203.225 38.566 203.106 38.563ZM214.598 37.625C214.597 37.8738 214.498 38.1121 214.322 38.2878C214.145 38.4635 213.907 38.5625 213.658 38.563H208.767C208.511 38.5577 208.265 38.4608 208.075 38.2897C207.884 38.1187 207.761 37.885 207.728 37.631L207.424 34.807C207.409 34.6888 207.419 34.5687 207.454 34.4549C207.49 34.3411 207.549 34.2363 207.629 34.1478C207.709 34.0592 207.807 33.989 207.916 33.9419C208.026 33.8948 208.144 33.872 208.263 33.875H213.658C213.907 33.875 214.146 33.9738 214.322 34.1496C214.498 34.3255 214.598 34.564 214.598 34.813V37.625ZM214.598 29.188C214.597 29.4368 214.498 29.6751 214.322 29.8508C214.145 30.0265 213.907 30.1255 213.658 30.126H207.86C207.344 30.126 206.878 29.707 206.82 29.194L206.518 26.37C206.503 26.2519 206.513 26.1318 206.549 26.0181C206.584 25.9044 206.644 25.7997 206.723 25.7111C206.803 25.6226 206.901 25.5523 207.01 25.5052C207.12 25.4581 207.238 25.4351 207.357 25.438H213.658C213.907 25.438 214.146 25.5368 214.322 25.7126C214.498 25.8885 214.598 26.127 214.598 26.376V29.188ZM214.598 20.75C214.597 20.9988 214.498 21.2371 214.322 21.4128C214.145 21.5885 213.907 21.6875 213.658 21.688H206.956C206.7 21.6829 206.454 21.5861 206.263 21.4151C206.072 21.244 205.949 21.0102 205.916 20.756L205.512 16.994C205.497 16.8758 205.508 16.7558 205.543 16.642C205.579 16.5283 205.638 16.4236 205.718 16.3351C205.798 16.2466 205.896 16.1764 206.005 16.1292C206.115 16.0821 206.233 16.0592 206.352 16.062H213.659C213.908 16.062 214.147 16.1608 214.323 16.3366C214.499 16.5125 214.599 16.751 214.599 17V20.75H214.598ZM224.757 37.631C224.724 37.8851 224.601 38.1188 224.41 38.2898C224.219 38.4608 223.973 38.5577 223.717 38.563H219.297C219.048 38.5625 218.81 38.4635 218.634 38.2877C218.458 38.112 218.359 37.8737 218.358 37.625V34.812C218.359 34.5632 218.458 34.3248 218.634 34.149C218.81 33.9731 219.048 33.8743 219.297 33.874H224.221C224.737 33.874 225.117 34.293 225.061 34.806L224.757 37.631ZM225.663 29.193C225.63 29.4471 225.507 29.6808 225.316 29.8518C225.125 30.0228 224.879 30.1197 224.623 30.125H219.297C219.048 30.1245 218.81 30.0255 218.634 29.8497C218.458 29.674 218.359 29.4357 218.358 29.187V26.374C218.359 26.1252 218.458 25.8868 218.634 25.711C218.81 25.5351 219.048 25.4363 219.297 25.436H225.127C225.644 25.436 226.023 25.855 225.966 26.368L225.663 29.193ZM226.569 20.756C226.536 21.0101 226.413 21.2438 226.222 21.4148C226.031 21.5858 225.785 21.6827 225.529 21.688H219.297C219.048 21.6875 218.81 21.5885 218.634 21.4127C218.458 21.237 218.359 20.9987 218.358 20.75V17C218.359 16.7512 218.458 16.5128 218.634 16.337C218.81 16.1611 219.048 16.0623 219.297 16.062H226.134C226.651 16.062 227.03 16.481 226.975 16.994L226.569 20.756ZM233.801 38.563V38.556L233.793 38.563H229.377C229.348 38.563 229.323 38.549 229.294 38.545C229.289 38.511 229.289 38.477 229.283 38.441L229.239 38.533C229.251 38.5362 229.264 38.5389 229.276 38.541C228.815 38.488 228.485 38.107 228.538 37.631L228.84 34.807C228.874 34.5531 228.997 34.3196 229.188 34.1487C229.378 33.9777 229.624 33.8807 229.88 33.875H234.956C235.473 33.875 235.829 34.291 235.751 34.802L235.308 37.636C235.231 38.146 234.743 38.563 234.226 38.563H233.801Z" fill="#C11717"/>
<path d="M18.4219 29.6406C17.9948 29.4531 17.4948 29.2656 16.9219 29.0781C16.3594 28.8802 15.7656 28.7031 15.1406 28.5469C14.526 28.3906 13.901 28.2656 13.2656 28.1719C12.6302 28.0677 12.0312 28.0156 11.4688 28.0156C10.4896 28.0156 9.72396 28.1406 9.17188 28.3906C8.61979 28.6406 8.34375 29.0625 8.34375 29.6562C8.34375 29.9375 8.4375 30.1875 8.625 30.4062C8.82292 30.6146 9.09896 30.8125 9.45312 31C9.80729 31.1771 10.2292 31.3542 10.7188 31.5312C11.2188 31.6979 11.7708 31.875 12.375 32.0625L13.5156 32.4219C14.474 32.7135 15.3333 33.0677 16.0938 33.4844C16.8542 33.8906 17.4948 34.375 18.0156 34.9375C18.5469 35.4896 18.9531 36.125 19.2344 36.8438C19.5156 37.5625 19.6562 38.3802 19.6562 39.2969C19.6562 40.3698 19.4844 41.349 19.1406 42.2344C18.8073 43.1094 18.2812 43.8594 17.5625 44.4844C16.8438 45.1094 15.9219 45.5938 14.7969 45.9375C13.6823 46.2812 12.3385 46.4531 10.7656 46.4531C9.36979 46.4531 7.97917 46.3385 6.59375 46.1094C5.21875 45.8802 3.82812 45.4792 2.42188 44.9062V39.75C3.76562 40.4375 5.06771 40.9427 6.32812 41.2656C7.59896 41.5781 8.84896 41.7344 10.0781 41.7344C11.0885 41.7344 11.8229 41.5729 12.2812 41.25C12.75 40.9271 12.9844 40.4792 12.9844 39.9062C12.9844 39.5625 12.8958 39.2708 12.7188 39.0312C12.5521 38.7812 12.276 38.5521 11.8906 38.3438C11.5156 38.1354 11.0208 37.9271 10.4062 37.7188C9.79167 37.5 9.04688 37.2552 8.17188 36.9844C7.29688 36.724 6.48438 36.3958 5.73438 36C4.99479 35.6042 4.35417 35.1302 3.8125 34.5781C3.27083 34.0156 2.84375 33.3646 2.53125 32.625C2.22917 31.8854 2.07812 31.0417 2.07812 30.0938C2.07812 29.1146 2.25 28.2188 2.59375 27.4062C2.9375 26.5938 3.46354 25.901 4.17188 25.3281C4.88021 24.7448 5.77604 24.2917 6.85938 23.9688C7.95312 23.6458 9.25 23.4844 10.75 23.4844C11.3438 23.4844 11.974 23.5104 12.6406 23.5625C13.3073 23.6146 13.9844 23.6927 14.6719 23.7969C15.3698 23.901 16.0573 24.0365 16.7344 24.2031C17.4115 24.3698 18.0521 24.5677 18.6562 24.7969L18.4219 29.6406ZM24.4531 23.9062H31.4531V32.5H37.9531V23.9062H44.9531V46H37.9531V37H31.4531V46H24.4531V23.9062ZM60.0469 46.4531C58.6823 46.4531 57.4635 46.3021 56.3906 46C55.3177 45.7083 54.3698 45.3021 53.5469 44.7812C52.7344 44.25 52.0417 43.625 51.4688 42.9062C50.9062 42.1771 50.4427 41.3906 50.0781 40.5469C49.724 39.6927 49.4635 38.7969 49.2969 37.8594C49.1406 36.9219 49.0625 35.9688 49.0625 35C49.0625 34.0417 49.1615 33.0938 49.3594 32.1562C49.5573 31.2083 49.8542 30.3073 50.25 29.4531C50.6458 28.599 51.1458 27.8073 51.75 27.0781C52.3542 26.349 53.0625 25.7188 53.875 25.1875C54.6875 24.6562 55.6042 24.2396 56.625 23.9375C57.6562 23.6354 58.7969 23.4844 60.0469 23.4844C61.2969 23.4844 62.4323 23.6354 63.4531 23.9375C64.4844 24.2396 65.4062 24.6562 66.2188 25.1875C67.0417 25.7188 67.7552 26.349 68.3594 27.0781C68.9635 27.8073 69.4635 28.599 69.8594 29.4531C70.2656 30.3073 70.5677 31.2083 70.7656 32.1562C70.9635 33.0938 71.0625 34.0417 71.0625 35C71.0625 35.9688 70.9792 36.9219 70.8125 37.8594C70.6458 38.7969 70.3802 39.6927 70.0156 40.5469C69.6615 41.3906 69.1979 42.1771 68.625 42.9062C68.0521 43.625 67.3594 44.25 66.5469 44.7812C65.7344 45.3021 64.7865 45.7083 63.7031 46C62.6302 46.3021 61.4115 46.4531 60.0469 46.4531ZM56.0625 35C56.0625 36.25 56.151 37.3177 56.3281 38.2031C56.5156 39.0885 56.776 39.8125 57.1094 40.375C57.4531 40.9375 57.8698 41.349 58.3594 41.6094C58.8594 41.8698 59.4219 42 60.0469 42C60.6719 42 61.2292 41.8698 61.7188 41.6094C62.2188 41.349 62.6406 40.9375 62.9844 40.375C63.3385 39.8125 63.6042 39.0885 63.7812 38.2031C63.9688 37.3177 64.0625 36.25 64.0625 35C64.0625 33.75 63.9688 32.6823 63.7812 31.7969C63.6042 30.901 63.3385 30.1719 62.9844 29.6094C62.6406 29.0365 62.2188 28.6146 61.7188 28.3438C61.2292 28.0729 60.6719 27.9375 60.0469 27.9375C59.4219 27.9375 58.8594 28.0729 58.3594 28.3438C57.8698 28.6146 57.4531 29.0365 57.1094 29.6094C56.776 30.1719 56.5156 30.901 56.3281 31.7969C56.151 32.6823 56.0625 33.75 56.0625 35ZM75.1875 23.9062H83.7188C85.1979 23.9062 86.4948 24 87.6094 24.1875C88.7344 24.3646 89.7083 24.6198 90.5312 24.9531C91.3542 25.2865 92.0365 25.6875 92.5781 26.1562C93.1302 26.625 93.5677 27.1406 93.8906 27.7031C94.224 28.2552 94.4583 28.849 94.5938 29.4844C94.7292 30.1198 94.7969 30.776 94.7969 31.4531C94.7969 32.026 94.7292 32.599 94.5938 33.1719C94.4688 33.7448 94.25 34.2917 93.9375 34.8125C93.6354 35.3333 93.2292 35.8177 92.7188 36.2656C92.2083 36.7135 91.5781 37.1042 90.8281 37.4375C90.0885 37.7708 89.2083 38.0312 88.1875 38.2188C87.1771 38.4062 86.0104 38.5 84.6875 38.5C84.5 38.5 84.2656 38.5 83.9844 38.5C83.7031 38.4896 83.4271 38.474 83.1562 38.4531L82.1875 38.3906V46H75.1875V23.9062ZM82.1875 35H83.7969C84.5469 35 85.1771 34.9115 85.6875 34.7344C86.1979 34.5469 86.6094 34.2969 86.9219 33.9844C87.2344 33.6719 87.4583 33.3021 87.5938 32.875C87.7292 32.4479 87.7969 31.9896 87.7969 31.5C87.7969 30.7188 87.6979 30.0729 87.5 29.5625C87.3021 29.0521 87.0208 28.6458 86.6562 28.3438C86.3021 28.0312 85.8802 27.8125 85.3906 27.6875C84.901 27.5625 84.3698 27.5 83.7969 27.5H82.1875V35Z" fill="#C11717"/>
<path d="M98.6562 23.9062H105.156L110.656 32.5L116.156 23.9062H122.812V46H115.656V34L110.5 42.7344H108.984L103.656 34V46H98.6562V23.9062ZM147.141 46H138.797L137.766 41.2969H132.281L131.297 46H125.656L131.281 23.9062H141.062L147.141 46ZM135.094 27.3438L132.953 37.6406H137.422L135.578 27.3438H135.094ZM149.969 23.9062H159.906C161.479 23.9062 162.865 24.1146 164.062 24.5312C165.26 24.9375 166.255 25.4792 167.047 26.1562C167.849 26.8229 168.453 27.5833 168.859 28.4375C169.266 29.2812 169.469 30.1354 169.469 31C169.469 31.6771 169.401 32.349 169.266 33.0156C169.13 33.6719 168.891 34.2969 168.547 34.8906C168.203 35.474 167.729 36.0052 167.125 36.4844C166.531 36.9531 165.771 37.3333 164.844 37.625C164.979 38.0625 165.208 38.6042 165.531 39.25C165.854 39.8958 166.229 40.5938 166.656 41.3438C167.083 42.0938 167.542 42.8698 168.031 43.6719C168.521 44.474 169 45.25 169.469 46H161.469C161.021 44.9896 160.562 43.8594 160.094 42.6094C159.625 41.349 159.25 39.9792 158.969 38.5H156.969V46H149.969V23.9062ZM158.156 35C158.948 35 159.615 34.8958 160.156 34.6875C160.708 34.4792 161.156 34.2083 161.5 33.875C161.844 33.5417 162.089 33.1667 162.234 32.75C162.391 32.3333 162.469 31.9167 162.469 31.5C162.469 30.6771 162.354 30.0052 162.125 29.4844C161.896 28.9635 161.583 28.5573 161.188 28.2656C160.792 27.9635 160.333 27.7604 159.812 27.6562C159.292 27.5521 158.734 27.5 158.141 27.5H156.969V35H158.156ZM173.781 46V29H168.781V23.9062H185.891V29H180.781V46H173.781Z" fill="white"/>
</svg>
